<svg width="780" height="112" viewBox="0 0 780 112" fill="none" xmlns="http://www.w3.org/2000/svg">
<path d="M778.272 67.3301C778.272 73.3155 777.334 78.2735 775.458 82.2041C773.672 86.1348 771.304 89.7528 768.356 93.0582C767.552 93.9515 766.346 95.0235 764.738 96.2741C763.13 97.4355 761.478 98.5968 759.78 99.7582C758.172 100.83 756.877 101.768 755.894 102.572C752.589 105.252 748.524 107.262 743.7 108.602C738.966 109.942 733.874 110.612 728.424 110.612C724.226 110.612 720.161 110.344 716.23 109.808C712.389 109.272 709.218 108.021 706.716 106.056C704.304 104.091 703.098 101.009 703.098 96.8102C703.098 93.0582 703.858 89.0381 705.376 84.7501C706.984 80.3728 708.994 76.0848 711.406 71.8861C713.818 67.6875 716.364 63.8461 719.044 60.3621C721.724 56.7888 724.181 53.9301 726.414 51.7861C724.896 50.4461 723.69 48.9275 722.796 47.2301C721.992 45.4435 721.59 43.5228 721.59 41.4681C721.59 37.6268 722.528 34.0088 724.404 30.6141C726.28 27.1301 728.737 24.0928 731.774 21.5021C734.812 18.8221 738.162 16.7228 741.824 15.2041C745.576 13.6855 749.328 12.9261 753.08 12.9261C756.296 12.9261 759.468 13.2835 762.594 13.9981C765.721 14.6235 768.312 15.8295 770.366 17.6161C772.51 19.4028 773.582 21.9041 773.582 25.1201C773.582 28.0681 773.404 30.3908 773.046 32.0881C772.689 33.6961 771.84 34.8128 770.5 35.4381C769.25 36.0635 767.24 36.3761 764.47 36.3761C761.701 36.3761 759.155 35.7955 756.832 34.6341C754.51 33.4728 753.125 32.2668 752.678 31.0161C752.589 30.6588 752.5 30.2568 752.41 29.8101C752.41 29.2741 752.41 28.6935 752.41 28.0681C752.41 26.3708 752.634 24.6735 753.08 22.9761C753.527 21.1895 754.286 20.2961 755.358 20.2961C756.698 20.2961 757.368 20.9215 757.368 22.1721C757.368 22.9761 757.19 23.9588 756.832 25.1201C756.564 26.1921 756.43 27.2195 756.43 28.2021C756.43 29.3635 756.788 30.3461 757.502 31.1501C758.306 31.8648 759.914 32.2221 762.326 32.2221C764.917 32.2221 766.704 31.7308 767.686 30.7481C768.669 29.6761 769.16 27.8001 769.16 25.1201C769.16 22.7081 768.312 20.9661 766.614 19.8941C764.917 18.8221 762.818 18.1521 760.316 17.8841C757.904 17.5268 755.492 17.3481 753.08 17.3481C749.864 17.3481 746.648 17.9735 743.432 19.2241C740.306 20.4748 737.402 22.2168 734.722 24.4501C732.132 26.6835 730.032 29.2741 728.424 32.2221C726.816 35.0808 726.012 38.1628 726.012 41.4681C726.012 44.2375 727.129 46.8281 729.362 49.2401C730.97 47.9001 732.891 46.5155 735.124 45.0861C737.358 43.5675 739.68 42.3168 742.092 41.3341C744.504 40.2621 746.827 39.7261 749.06 39.7261C750.579 39.7261 751.919 40.3515 753.08 41.6021C754.331 42.7635 754.956 44.0588 754.956 45.4881C754.956 46.7388 754.063 48.2575 752.276 50.0441C750.579 51.7415 748.435 53.2601 745.844 54.6002C743.254 55.8508 740.574 56.4762 737.804 56.4762C737.447 56.4762 737.045 56.4762 736.598 56.4762C736.241 56.3868 735.839 56.2975 735.392 56.2081C733.516 55.8508 731.73 55.2255 730.032 54.3321C727.352 56.7441 724.583 59.9155 721.724 63.8461C718.955 67.6875 716.588 71.9308 714.622 76.5761C712.746 81.1322 711.808 85.7775 711.808 90.5121C711.808 95.4255 713.327 99.2668 716.364 102.036C719.491 104.805 723.511 106.19 728.424 106.19C733.338 106.19 738.028 105.118 742.494 102.974C746.961 100.83 750.713 98.5968 753.75 96.2741C755.269 95.1128 756.743 93.9068 758.172 92.6562C759.602 91.4055 760.942 90.1101 762.192 88.7701C763.979 86.8048 765.721 84.8841 767.418 83.0081C769.205 81.0428 770.679 78.8541 771.84 76.4421C773.091 73.9408 773.716 70.9035 773.716 67.3301C773.716 66.1688 773.27 65.1861 772.376 64.3821C771.483 63.5781 770.545 63.1761 769.562 63.1761C766.257 63.1761 763.443 63.5781 761.12 64.3821C758.887 65.1861 756.966 66.8835 755.358 69.4741C755.001 69.9208 754.688 70.4122 754.42 70.9482C754.152 71.3948 754.018 71.9755 754.018 72.6901C754.018 73.5835 754.465 74.2088 755.358 74.5661C756.252 74.8341 756.609 75.4148 756.43 76.3082V77.3801C756.43 77.7375 756.341 78.0501 756.162 78.3181C755.984 78.5861 755.403 78.8095 754.42 78.9881C753.259 79.0775 751.919 78.3628 750.4 76.8441C748.882 75.2361 748.122 73.4941 748.122 71.6181C748.122 70.1888 748.48 69.0275 749.194 68.1341C749.909 67.1515 750.758 66.0795 751.74 64.9181C754.242 62.0595 756.877 60.3175 759.646 59.6921C762.505 59.0668 765.81 58.7541 769.562 58.7541C771.885 58.7541 773.895 59.6475 775.592 61.4342C777.379 63.1315 778.272 65.0968 778.272 67.3301ZM744.504 45.6221C741.824 45.6221 739.546 46.2922 737.67 47.6321C735.884 48.8828 734.231 50.2675 732.712 51.7861C733.695 52.2328 734.678 52.4561 735.66 52.4561C737 52.4561 738.608 52.2328 740.484 51.7861C742.45 51.3395 744.147 50.7588 745.576 50.0441C747.095 49.2401 747.854 48.3021 747.854 47.2301C747.854 46.8728 747.363 46.5155 746.38 46.1581C745.487 45.8008 744.862 45.6221 744.504 45.6221Z" fill="black"/>
<path d="M639.654 45.0861L645.416 35.8402C645.773 35.8402 646.131 35.8402 646.488 35.8402C646.845 35.7508 647.247 35.6615 647.694 35.5721C648.409 35.4828 649.347 35.3488 650.508 35.1701C651.669 34.9915 653.009 34.8128 654.528 34.6342C660.603 33.9195 662.836 32.4455 661.228 30.2122L680.39 27.3981H685.348L686.286 28.4701L686.822 32.8921L684.544 34.6342L677.844 34.7681L669.134 39.0561L659.486 42.1381L657.878 45.7562L660.96 53.2602L664.712 53.7962L666.454 57.6822L669.67 57.4142L671.546 59.6922C672.35 59.4242 673.154 59.2455 673.958 59.1561C674.762 58.9775 675.477 58.9775 676.102 59.1561C676.549 59.2455 677.04 59.3348 677.576 59.4242C678.112 59.4242 678.737 59.5135 679.452 59.6922C680.345 59.9601 680.971 60.2728 681.328 60.6302C681.685 60.8982 681.998 61.1662 682.266 61.4342C682.534 61.6128 682.847 61.7915 683.204 61.9701C683.561 62.1488 684.187 62.2381 685.08 62.2381C685.348 62.7741 685.839 63.3102 686.554 63.8461C687.358 64.3822 688.207 64.9181 689.1 65.4541C690.083 65.9901 691.021 66.5261 691.914 67.0621C692.897 67.5981 693.611 68.1342 694.058 68.6702C694.237 68.8488 694.326 68.9828 694.326 69.0722C694.415 69.1615 694.549 69.2955 694.728 69.4742L695.532 75.9062L692.584 83.9462L691.78 89.5742L685.214 92.9241L674.36 97.2122L667.794 96.2742C665.471 95.9168 663.417 95.9168 661.63 96.2742C659.843 96.6315 658.191 96.8102 656.672 96.8102H641.932L640.324 92.7901L641.396 88.9041L660.826 86.8941L667.258 86.0901L675.298 77.5141L674.092 73.6281L668.196 72.5562L657.878 69.7422L656.136 70.6801L650.508 68.1342L646.89 65.7222L642.736 56.6101L639.654 50.5802V45.0861Z" fill="black"/>
<path d="M605.66 100.16C600.479 100.16 595.923 99.0882 591.992 96.9442C588.062 94.7108 584.98 91.6288 582.746 87.6982C580.602 83.7675 579.53 79.2115 579.53 74.0302V20.4301H556.75V2.34015H599.63V74.0302C599.63 76.4422 600.345 78.4075 601.774 79.9261C603.293 81.3555 605.258 82.0701 607.67 82.0701H629.11V100.16H605.66Z" fill="black"/>
<path d="M463.527 100.16V21.3682H546.875V34.2322H481.215V52.7242H531.331V65.9902H481.215V87.2962H547.411L552.771 98.6862C552.771 99.0435 551.565 99.4008 549.153 99.7582C546.741 100.026 542.587 100.16 536.691 100.16H463.527Z" fill="black"/>
<path d="M402.652 100.16H388.224V71.2608L385.544 69.6082V64.5608L395.148 62.1935H398.766L400.061 72.8242C401.282 65.5286 405.198 61.8808 411.808 61.8808C412.553 61.8808 413.327 62.0148 414.131 62.2828L412.612 78.1842C411.987 77.6184 410.617 77.3355 408.503 77.3355C405.466 77.3355 403.515 78.1395 402.652 79.7475V100.16Z" fill="black"/>
<path d="M366.98 104.85C364.032 104.85 361.62 103.957 359.744 102.17C357.958 100.383 356.618 98.1055 355.724 95.3362C354.831 92.4775 354.384 89.4848 354.384 86.3581C354.384 84.4821 354.563 82.6955 354.92 80.9981C355.278 79.3008 355.635 77.9161 355.992 76.8441C355.903 76.2188 355.814 75.5935 355.724 74.9681C355.724 74.2535 355.724 73.5388 355.724 72.8242C355.724 70.2335 355.992 67.4195 356.528 64.3821C357.064 61.3448 357.913 58.4415 359.074 55.6721C360.325 52.9028 361.844 50.6695 363.63 48.9721C365.506 47.1855 367.784 46.2921 370.464 46.2921C372.787 46.2921 375.065 47.2748 377.298 49.2401C379.532 51.1161 381.497 53.8855 383.194 57.5481C384.177 59.6028 384.847 61.8361 385.204 64.2481C385.651 66.5708 385.874 68.9382 385.874 71.3502C385.874 74.6555 385.517 77.9608 384.802 81.2662C384.177 84.4822 383.239 87.5195 381.988 90.3782C381.095 92.4328 379.889 94.6215 378.37 96.9441C376.941 99.1775 375.288 101.053 373.412 102.572C371.536 104.091 369.392 104.85 366.98 104.85ZM367.65 101.902C370.688 101.902 373.502 99.8028 376.092 95.6041C377.968 92.6561 379.308 89.3061 380.112 85.5541C380.916 81.7128 381.318 77.8715 381.318 74.0302C381.318 71.1715 381.14 68.4021 380.782 65.7221C380.425 63.0421 379.889 60.4515 379.174 57.9501C378.549 55.7168 377.477 53.7515 375.958 52.0541C374.529 50.2675 372.474 49.5081 369.794 49.7761C367.65 49.9548 365.774 51.0268 364.166 52.9921C362.558 54.9575 361.308 57.1908 360.414 59.6921C359.61 62.1041 359.208 64.2035 359.208 65.9901C359.208 66.9728 359.342 67.7321 359.61 68.2682C359.878 67.5535 360.548 66.3921 361.62 64.7841C362.692 63.0868 363.898 61.5681 365.238 60.2281C366.578 58.7988 367.829 58.0841 368.99 58.0841C369.973 58.0841 370.464 58.4861 370.464 59.2901C369.303 59.3795 368.142 60.0941 366.98 61.4342C365.908 62.6848 364.881 64.2035 363.898 65.9901C363.005 67.7768 362.246 69.5635 361.62 71.3502C361.084 73.0475 360.682 74.3875 360.414 75.3701C360.325 75.7275 360.191 76.1741 360.012 76.7101C359.834 77.2461 359.744 77.7821 359.744 78.3181C359.744 78.9435 360.102 79.9708 360.816 81.4001C361.531 82.7401 362.692 83.9908 364.3 85.1521C365.908 86.3135 368.097 86.8941 370.866 86.8941C371.67 86.8941 372.519 86.8048 373.412 86.6261C374.306 86.4475 375.154 86.2688 375.958 86.0901L376.896 85.8222C377.075 85.8222 377.164 85.9115 377.164 86.0901C377.164 86.3581 376.852 86.7155 376.226 87.1621C375.69 87.5195 375.199 87.7875 374.752 87.9661C373.502 88.5915 372.117 88.9041 370.598 88.9041C368.365 88.9041 366.221 88.2341 364.166 86.8941C362.201 85.4648 360.459 83.8568 358.94 82.0701C358.851 82.7848 358.806 83.4995 358.806 84.2141C358.806 84.8395 358.806 85.4648 358.806 86.0901C358.806 91.2715 359.7 95.2021 361.486 97.8821C363.273 100.562 365.328 101.902 367.65 101.902Z" fill="black"/>
<path d="M300.701 96.4082V100.16H275.777V89.0382C273.276 93.1475 270.462 96.2742 267.335 98.4182C264.298 100.473 260.68 101.5 256.481 101.5C248.977 101.5 242.992 98.5522 238.525 92.6562C234.148 86.6708 231.959 78.3182 231.959 67.5982V64.9182C231.959 54.5555 234.505 46.2922 239.597 40.1282C244.778 33.9642 251.836 30.8822 260.769 30.8822C266.129 30.8822 270.864 32.2222 274.973 34.9022V12.2562C274.973 9.21881 274.839 7.43215 274.571 6.89615C274.303 6.27082 273.454 5.86882 272.025 5.69015L264.655 4.75215V1.00015H290.383V88.9042C290.383 91.9415 290.517 93.7728 290.785 94.3982C291.053 94.9342 291.902 95.2915 293.331 95.4702L300.701 96.4082ZM248.441 71.6182C248.441 79.9262 249.468 86.0008 251.523 89.8422C253.578 93.6835 256.392 95.6042 259.965 95.6042C262.198 95.6042 264.521 94.7108 266.933 92.9242C269.434 91.0482 272.114 87.2962 274.973 81.6682V41.2001C271.578 37.8055 267.424 36.1082 262.511 36.1082C257.598 36.1082 254.024 38.3415 251.791 42.8082C249.558 47.1855 248.441 53.2155 248.441 60.8982V71.6182Z" fill="black"/>
<path d="M180 1.49219C184.711 1.66667 189.465 2.53907 194.264 4.10938C199.149 5.59245 203.642 8.03516 207.742 11.4375C211.842 14.7526 215.332 19.071 218.211 24.3926C221.09 29.627 222.878 36.0391 223.576 43.6289C224.187 49.8229 223.402 55.9733 221.221 62.0801C219.127 68.0996 216.204 73.6393 212.453 78.6992C208.702 83.7591 204.383 88.0775 199.498 91.6543C194.613 95.1439 189.727 97.4557 184.842 98.5899C181.876 99.2878 178.604 99.375 175.027 98.8516C171.538 98.2409 167.961 97.1504 164.297 95.5801C160.72 93.9225 157.187 91.8288 153.697 89.2988C150.295 86.7689 147.198 83.89 144.406 80.6621C141.615 77.347 139.259 73.7702 137.34 69.9316C135.508 66.0931 134.374 62.0801 133.938 57.8926C133.501 54.403 133.458 50.5645 133.807 46.377C134.243 42.1022 135.072 37.8711 136.293 33.6836C137.602 29.4089 139.39 25.3086 141.658 21.3828C144.014 17.3698 146.98 13.8802 150.557 10.9141C154.133 7.86068 158.321 5.50521 163.119 3.84766C168.005 2.10287 173.632 1.31771 180 1.49219ZM156.576 54.4902C155.355 63.8249 156.227 71.3275 159.193 76.9981C162.247 82.6686 166.827 86.1146 172.934 87.3359C175.9 87.9466 178.735 87.3359 181.439 85.5039C184.231 83.5846 186.761 80.8366 189.029 77.2598C191.298 73.683 193.26 69.4954 194.918 64.6973C196.576 59.8991 197.797 54.8828 198.582 49.6484C199.367 44.4141 199.411 39.7031 198.713 35.5156C198.102 31.2409 197.012 27.6204 195.441 24.6543C193.871 21.6009 191.952 19.2454 189.684 17.5879C187.503 15.9303 185.234 15.0143 182.879 14.8398C178.779 14.5781 175.202 15.6686 172.148 18.1113C169.095 20.4668 166.521 23.5638 164.428 27.4023C162.334 31.2409 160.633 35.5592 159.324 40.3574C158.103 45.1556 157.187 49.8665 156.576 54.4902Z" fill="black"/>
<path d="M110.852 41.0662C111.031 40.9768 111.969 40.9322 113.666 40.9322C116.078 41.0215 118.222 41.3788 120.098 42.0042C127.513 44.5055 132.114 49.9102 133.9 58.2182C134.079 59.2902 134.168 60.9875 134.168 63.3102C134.258 66.2582 133.99 68.9382 133.364 71.3502C132.114 76.3528 129.97 80.9982 126.932 85.2862C121.394 93.0582 114.47 98.1502 106.162 100.562C103.929 101.187 101.74 101.545 99.5963 101.634C91.9136 101.902 86.0176 99.1328 81.9083 93.3262C81.3723 92.7008 80.9256 92.0308 80.5683 91.3162C76.2803 83.6335 76.4143 74.6108 80.9703 64.2482C83.1143 59.6028 85.9729 55.4935 89.5463 51.9202C92.9409 48.5255 96.4696 45.9795 100.132 44.2822C103.706 42.4955 107.279 41.4235 110.852 41.0662ZM115.006 47.4982C113.13 47.2302 111.612 47.1855 110.45 47.3642C106.073 48.1682 102.455 50.3122 99.5963 53.7962C97.0056 56.9228 94.7723 62.1488 92.8963 69.4742C92.7176 70.0995 92.5389 70.7248 92.3603 71.3502C90.9309 77.2462 90.2163 81.6235 90.2163 84.4822C90.2163 86.3582 90.3056 87.6088 90.4843 88.2342C91.5563 92.4328 94.1469 94.7555 98.2563 95.2022C100.043 95.3808 101.919 95.1575 103.884 94.5322C108.619 93.0135 112.371 89.5742 115.14 84.2142C116.659 81.4448 118.178 76.8888 119.696 70.5462C121.662 62.7742 122.198 57.2355 121.304 53.9302C120.411 50.6248 118.312 48.4808 115.006 47.4982Z" fill="black"/>
<path d="M1 2.93164H80.7588V17.915H38.8838L38.8184 46.1152H69.5703V61.0986H38.8184V100.16H1V2.93164Z" fill="black"/>
<path d="M744.651 45.6309C745.023 45.67 745.599 45.8456 746.38 46.1581C747.363 46.5155 747.854 46.8728 747.854 47.2301L747.846 47.4297C747.757 48.4189 747 49.2904 745.576 50.0441C744.147 50.7588 742.45 51.3395 740.484 51.7861C738.608 52.2328 737 52.4561 735.66 52.4561L735.66 51.4561C736.896 51.4561 738.423 51.2492 740.253 50.8135L740.263 50.8105C742.165 50.3782 743.78 49.8214 745.12 49.1523C746.313 48.5182 746.734 47.9343 746.83 47.459C746.725 47.3924 746.568 47.31 746.347 47.2178L746.039 47.0977L746.023 47.0928L746.009 47.0869C745.58 46.9156 745.235 46.7945 744.967 46.7178C744.684 46.6371 744.544 46.6222 744.505 46.6221C741.998 46.6221 739.932 47.2463 738.252 48.4463L738.244 48.4512C736.963 49.3483 735.752 50.3158 734.613 51.3535C734.966 51.4206 735.314 51.456 735.66 51.4561L735.66 52.4561C734.678 52.4561 733.695 52.2328 732.712 51.7861C734.231 50.2675 735.884 48.8828 737.67 47.6321C739.546 46.2922 741.824 45.6221 744.504 45.6221L744.651 45.6309ZM756.43 28.2021C756.43 27.2195 756.564 26.1921 756.832 25.1201C757.19 23.9588 757.368 22.9761 757.368 22.1721C757.368 20.9998 756.779 20.3769 755.602 20.3037L755.358 20.2961C754.286 20.2961 753.527 21.1895 753.08 22.9761C752.634 24.6735 752.41 26.3708 752.41 28.0681V29.8101C752.5 30.2568 752.589 30.6588 752.678 31.0161C753.125 32.2668 754.51 33.4728 756.832 34.6341C759.01 35.7229 761.384 36.3011 763.954 36.3691L764.47 36.3761C767.066 36.3761 768.995 36.1013 770.257 35.5518L770.5 35.4381C771.84 34.8128 772.689 33.6961 773.046 32.0881C773.404 30.3908 773.582 28.0681 773.582 25.1201C773.582 22.1053 772.64 19.7187 770.756 17.96L770.366 17.6161C768.44 15.9413 766.043 14.7764 763.175 14.1221L762.594 13.9981C759.468 13.2835 756.296 12.9261 753.08 12.9261C749.328 12.9261 745.576 13.6855 741.824 15.2041C738.162 16.7228 734.812 18.8221 731.774 21.5021L731.212 21.9932C728.432 24.4743 726.163 27.3479 724.404 30.6141L724.063 31.2529C722.415 34.4615 721.59 37.867 721.59 41.4681L721.595 41.8516C721.642 43.7622 722.043 45.5551 722.796 47.2301C723.69 48.9275 724.896 50.4461 726.414 51.7861C724.181 53.9301 721.724 56.7888 719.044 60.3621L718.544 61.0195C716.047 64.3277 713.668 67.9499 711.406 71.8861C708.994 76.0848 706.984 80.3728 705.376 84.7501C703.858 89.0381 703.098 93.0582 703.098 96.8102L703.112 97.584C703.254 101.39 704.455 104.214 706.716 106.056C709.218 108.021 712.389 109.272 716.23 109.808C719.67 110.277 723.212 110.541 726.856 110.6L728.424 110.612C733.874 110.612 738.966 109.942 743.7 108.602C748.223 107.346 752.078 105.5 755.266 103.066L755.894 102.572C756.877 101.768 758.172 100.83 759.78 99.7582C761.053 98.8872 762.302 98.0165 763.524 97.1455L764.738 96.2741C766.145 95.1798 767.245 94.2221 768.036 93.4014L768.356 93.0582C771.304 89.7528 773.672 86.1348 775.458 82.2041C777.217 78.5192 778.152 73.9313 778.262 68.4404L778.272 67.3301C778.272 65.0968 777.379 63.1315 775.592 61.4342C774.001 59.7591 772.135 58.8693 769.994 58.7646L769.562 58.7541C765.81 58.7541 762.505 59.0668 759.646 59.6921C756.877 60.3175 754.242 62.0595 751.74 64.9181C750.758 66.0795 749.909 67.1515 749.194 68.1341C748.48 69.0275 748.122 70.1888 748.122 71.6181L748.131 71.9688C748.22 73.7116 748.977 75.3368 750.4 76.8441C751.919 78.3628 753.259 79.0775 754.42 78.9881C755.341 78.8207 755.909 78.6141 756.124 78.3682L756.162 78.3181C756.319 78.0836 756.406 77.8147 756.426 77.5117L756.43 77.3801V76.3082C756.609 75.4148 756.252 74.8341 755.358 74.5661C754.521 74.2311 754.076 73.6606 754.023 72.8545L754.018 72.6901C754.018 72.0649 754.121 71.5422 754.326 71.1221L754.42 70.9482C754.621 70.5461 754.847 70.1691 755.099 69.8174L755.358 69.4741C756.966 66.8835 758.887 65.1861 761.12 64.3821C763.443 63.5781 766.257 63.1761 769.562 63.1761L769.746 63.1807C770.662 63.2278 771.539 63.6286 772.376 64.3821C773.27 65.1861 773.716 66.1688 773.716 67.3301L773.709 67.9941C773.636 71.2812 773.013 74.0972 771.84 76.4421C770.679 78.8541 769.205 81.0428 767.418 83.0081C765.721 84.8841 763.979 86.8048 762.192 88.7701C760.942 90.1101 759.602 91.4055 758.172 92.6562L757.092 93.5859C756.003 94.5071 754.889 95.4032 753.75 96.2741L753.173 96.709C750.242 98.876 746.682 100.964 742.494 102.974L741.654 103.363C737.441 105.248 733.031 106.19 728.424 106.19L728.425 105.19C733.187 105.19 737.729 104.152 742.062 102.072C746.483 99.9497 750.173 97.7504 753.143 95.4795C754.644 94.3314 756.101 93.1394 757.514 91.9033C758.918 90.6741 760.234 89.4023 761.461 88.0879C763.244 86.1264 764.983 84.2093 766.677 82.3369L766.679 82.3359C768.4 80.4427 769.82 78.3344 770.939 76.0088L770.942 76.002L770.946 75.9951C772.111 73.6657 772.717 70.79 772.717 67.3301C772.717 66.4633 772.398 65.7469 771.707 65.125C770.955 64.448 770.246 64.1758 769.562 64.1758C766.338 64.1758 763.645 64.5684 761.459 65.3232L761.093 65.4658C759.273 66.2249 757.636 67.701 756.208 70.002L756.177 70.0518L756.14 70.0986C755.828 70.4878 755.552 70.9195 755.314 71.3955L755.298 71.4297L755.278 71.4629C755.132 71.7067 755.019 72.0923 755.019 72.6904L755.03 72.876C755.053 73.044 755.104 73.1605 755.167 73.248C755.253 73.3687 755.413 73.5084 755.72 73.6328C756.286 73.8158 756.815 74.1369 757.148 74.6787C757.476 75.2114 757.525 75.8117 757.431 76.3857V77.3799L757.424 77.5791C757.394 78.0394 757.257 78.4794 756.994 78.873C756.724 79.2774 756.283 79.4927 755.952 79.6201C755.579 79.7635 755.12 79.877 754.6 79.9717L754.549 79.9814L754.497 79.9854C752.977 80.1022 751.46 79.2353 749.987 77.8379L749.693 77.5508L749.674 77.5312C748.013 75.7731 747.122 73.7944 747.122 71.6182C747.122 70.0199 747.524 68.6208 748.413 67.5098C749.139 66.5134 749.994 65.4336 750.977 64.2725L750.982 64.2656L750.988 64.2598C753.582 61.2952 756.39 59.4023 759.426 58.7168L759.433 58.7148C762.378 58.0706 765.758 57.7539 769.562 57.7539C772.161 57.7539 774.415 58.7615 776.281 60.709C778.244 62.5735 779.272 64.7928 779.272 67.3301L779.261 68.459C779.149 74.0392 778.2 78.7711 776.368 82.6172C774.539 86.6419 772.116 90.3451 769.103 93.7236L769.1 93.7275C768.238 94.6845 766.98 95.798 765.353 97.0635L765.338 97.0742L765.324 97.085C763.709 98.2514 762.049 99.4171 760.345 100.583L760.335 100.59C758.742 101.652 757.475 102.57 756.527 103.346L756.524 103.349C753.096 106.128 748.903 108.193 743.972 109.563L743.973 109.564C739.141 110.932 733.956 111.612 728.425 111.612C724.714 111.612 721.102 111.405 717.593 110.989L716.096 110.799H716.092C712.362 110.278 709.187 109.099 706.606 107.227L706.099 106.843L706.085 106.831C703.365 104.615 702.099 101.198 702.099 96.8105C702.099 92.9236 702.885 88.7892 704.434 84.416L704.438 84.4053C706.066 79.9729 708.1 75.6335 710.539 71.3877C712.969 67.1579 715.537 63.282 718.244 59.7617C720.651 56.5531 722.893 53.8977 724.971 51.8047C723.819 50.6643 722.859 49.4073 722.094 48.0332L721.911 47.6963L721.897 47.6689L721.885 47.6406C721.02 45.7187 720.591 43.6569 720.591 41.4678C720.591 37.4593 721.57 33.6781 723.523 30.1396C725.459 26.5457 727.994 23.4115 731.125 20.7412C734.24 17.9951 737.68 15.84 741.441 14.2803L741.449 14.2773C745.311 12.7143 749.19 11.9258 753.08 11.9258C756.37 11.9258 759.616 12.2913 762.815 13.0225C766.064 13.6758 768.808 14.9416 771.006 16.8477C773.414 18.8544 774.582 21.6579 774.582 25.1201C774.582 28.0963 774.403 30.4981 774.025 32.2939L774.022 32.3047C773.609 34.1674 772.589 35.5569 770.946 36.332L770.947 36.333C770.943 36.3353 770.937 36.3365 770.933 36.3389C770.929 36.3404 770.926 36.3432 770.923 36.3447L770.922 36.3438C769.453 37.0692 767.256 37.376 764.471 37.376C761.557 37.376 758.855 36.7637 756.385 35.5283C754.171 34.4215 752.537 33.1607 751.859 31.6562L751.736 31.3525L751.72 31.3066L751.708 31.2588C751.614 30.883 751.521 30.4646 751.43 30.0059L751.41 29.9092V28.0684C751.41 26.2823 751.646 24.4992 752.113 22.7217C752.355 21.7607 752.705 20.9278 753.223 20.3184C753.772 19.6718 754.499 19.2959 755.358 19.2959C756.166 19.2959 756.958 19.4834 757.548 20.0342C758.151 20.5971 758.368 21.3741 758.368 22.1719C758.368 23.1016 758.165 24.1751 757.8 25.3711C757.551 26.3703 757.431 27.3132 757.431 28.2021L757.443 28.5449C757.503 29.3007 757.765 29.9179 758.212 30.4385C758.445 30.6274 758.854 30.8277 759.528 30.9775C760.237 31.1349 761.163 31.2217 762.326 31.2217L762.326 32.2221C759.914 32.2221 758.306 31.8648 757.502 31.1501C756.832 30.3964 756.476 29.4857 756.435 28.418L756.43 28.2021ZM768.16 25.1201C768.16 22.971 767.425 21.589 766.08 20.7393C764.637 19.8278 762.838 19.2145 760.652 18.9307L760.21 18.8789L760.189 18.876L760.17 18.873C757.806 18.5228 755.442 18.3486 753.08 18.3486C749.997 18.3487 746.903 18.9463 743.794 20.1553C740.777 21.3634 737.971 23.0467 735.375 25.208L734.912 25.6162C732.623 27.6776 730.755 30.0384 729.303 32.7012L729.296 32.7129C727.773 35.4204 727.013 38.3331 727.013 41.4678L727.024 41.9307C727.128 43.9801 727.925 45.9491 729.483 47.8535C730.962 46.6771 732.664 45.4738 734.585 44.2441C736.858 42.7004 739.226 41.4249 741.687 40.4199L742.157 40.2168C744.51 39.2318 746.814 38.7266 749.061 38.7266C750.878 38.7266 752.461 39.483 753.779 40.8867C755.179 42.1937 755.956 43.735 755.956 45.4883L755.943 45.8047C755.809 47.3921 754.679 49.0551 752.983 50.751C751.2 52.5347 748.967 54.1108 746.304 55.4883L746.292 55.4951L746.279 55.501C743.559 56.8144 740.73 57.4765 737.805 57.4766H736.476L736.355 57.4463C736.019 57.3622 735.636 57.2767 735.205 57.1904C733.463 56.8586 731.794 56.3059 730.199 55.5352C727.739 57.8285 725.182 60.7898 722.532 64.4336C719.812 68.207 717.483 72.3802 715.546 76.9561L715.547 76.957C713.719 81.3971 712.809 85.9132 712.809 90.5117L712.812 90.9482C712.899 95.4187 714.332 98.8243 717.027 101.287C719.94 103.867 723.71 105.19 728.425 105.19L728.424 106.19L727.967 106.187C723.261 106.103 719.393 104.719 716.364 102.036C713.422 99.3534 711.904 95.6645 711.812 90.9697L711.808 90.5121C711.808 85.7775 712.746 81.1322 714.622 76.5761C716.588 71.9308 718.955 67.6875 721.724 63.8461C724.583 59.9155 727.352 56.7441 730.032 54.3321C731.73 55.2255 733.516 55.8508 735.392 56.2081C735.616 56.2528 735.828 56.2971 736.029 56.3418L736.598 56.4762H737.804L738.322 56.4688C740.736 56.4004 743.081 55.8531 745.357 54.8271L745.844 54.6002C748.435 53.2601 750.579 51.7415 752.276 50.0441C753.951 48.3691 754.842 46.9295 754.946 45.7256L754.956 45.4881C754.956 44.0588 754.331 42.7635 753.08 41.6021C751.992 40.4296 750.746 39.8066 749.343 39.7334L749.06 39.7261C746.827 39.7261 744.504 40.2621 742.092 41.3341C739.68 42.3168 737.358 43.5675 735.124 45.0861C732.891 46.5155 730.97 47.9001 729.362 49.2401L728.957 48.7861C727.125 46.656 726.148 44.3891 726.025 41.9854L726.012 41.4681C726.012 38.3696 726.719 35.4668 728.132 32.7607L728.424 32.2221C730.032 29.2741 732.132 26.6835 734.722 24.4501C737.402 22.2168 740.306 20.4748 743.432 19.2241C746.648 17.9735 749.864 17.3481 753.08 17.3481L753.985 17.3564C756.096 17.3955 758.206 17.5715 760.316 17.8841C762.818 18.1521 764.917 18.8221 766.614 19.8941C768.312 20.9661 769.16 22.7081 769.16 25.1201C769.16 27.8001 768.669 29.6761 767.686 30.7481C766.704 31.7308 764.917 32.2221 762.326 32.2221L762.326 31.2217C764.837 31.2217 766.267 30.7354 766.961 30.0566C767.673 29.2675 768.16 27.7221 768.16 25.1201Z" fill="black"/>
<path d="M685.802 26.3984L687.039 27.8115L687.241 28.0439L687.884 33.3389L684.892 35.627L678.086 35.7627L669.509 39.9863L660.217 42.9541L658.965 45.7715L661.667 52.3506L664.854 52.8066L665.399 52.8838L667.076 56.626L669.587 56.418L670.109 56.374L671.894 58.54C672.527 58.3647 673.163 58.2404 673.802 58.167C674.68 57.9795 675.525 57.9665 676.312 58.1777C676.723 58.2599 677.177 58.3417 677.672 58.4248C678.288 58.4347 678.966 58.5395 679.694 58.7217L679.717 58.7275L679.739 58.7344C680.637 59.0037 681.425 59.3565 681.961 59.8555C682.302 60.113 682.611 60.3771 682.889 60.6465C682.984 60.7077 683.086 60.7705 683.197 60.834L683.651 61.0762C683.781 61.1409 684.196 61.2383 685.08 61.2383H685.698L685.975 61.791C686.146 62.1336 686.502 62.553 687.137 63.0322C687.912 63.5486 688.732 64.0657 689.595 64.584C690.581 65.122 691.523 65.6617 692.422 66.2012C693.408 66.7416 694.211 67.3231 694.766 67.9629C694.878 68.0756 694.995 68.2063 695.091 68.3496C695.117 68.3895 695.151 68.4476 695.187 68.5186L695.436 68.7666L695.678 69.0098L695.721 69.3506L696.524 75.7822L696.555 76.0225L696.471 76.25L693.56 84.1875L692.696 90.2295L685.669 93.8145L685.626 93.8369L685.581 93.8545L674.728 98.1426L674.481 98.2393L674.219 98.2021L667.652 97.2637L667.642 97.2627C665.403 96.9183 663.47 96.9261 661.826 97.2549C659.987 97.6227 658.268 97.8105 656.672 97.8105H641.255L639.271 92.8486L639.36 92.5244L640.613 87.9795L660.724 85.8994L666.775 85.1416L674.17 77.2539L673.316 74.5029L667.975 73.5322L667.933 73.5205L658.001 70.8115L656.175 71.7949L650.096 69.0449L650.021 69.0117L649.953 68.9658L646.335 66.5547L646.099 66.3965L641.833 57.042L638.654 50.8213V44.7998L638.806 44.5576L644.861 34.8398H646.373C646.715 34.7566 647.09 34.6733 647.498 34.5918L647.534 34.584L647.57 34.5801C648.272 34.4924 649.2 34.3596 650.356 34.1816C651.532 34.0008 652.884 33.8203 654.411 33.6406C657.444 33.2839 659.307 32.7529 660.208 32.1582C660.635 31.8765 660.712 31.6689 660.728 31.5781C660.742 31.4916 660.736 31.2964 660.521 30.9531L660.417 30.7969L659.455 29.4619L680.245 26.4092L680.317 26.3984H685.802ZM639.654 50.5802L642.736 56.6101L646.89 65.7222L650.508 68.1342L656.136 70.6801L657.878 69.7422L668.196 72.5562L674.092 73.6281L675.298 77.5141L667.258 86.0901L660.826 86.8941L641.396 88.9041L640.324 92.7901L641.932 96.8102H656.672L657.248 96.8018C658.412 96.7682 659.652 96.634 660.967 96.3994L661.63 96.2742C663.417 95.9168 665.471 95.9168 667.794 96.2742L674.36 97.2122L685.214 92.9241L691.78 89.5742L692.584 83.9462L695.532 75.9062L694.728 69.4742C694.549 69.2955 694.415 69.1615 694.326 69.0722C694.326 68.9828 694.237 68.8488 694.058 68.6702C693.667 68.2012 693.071 67.7317 692.27 67.2627L691.914 67.0621C691.021 66.5261 690.083 65.9901 689.1 65.4541C688.207 64.9181 687.358 64.3822 686.554 63.8461C685.839 63.3102 685.348 62.7741 685.08 62.2381C684.298 62.2381 683.722 62.17 683.351 62.0332L683.204 61.9701C682.847 61.7915 682.534 61.6128 682.266 61.4342C681.998 61.1662 681.685 60.8982 681.328 60.6302C680.971 60.2728 680.345 59.9601 679.452 59.6922C678.737 59.5135 678.112 59.4242 677.576 59.4242C677.04 59.3348 676.549 59.2455 676.102 59.1561C675.477 58.9775 674.762 58.9775 673.958 59.1561C673.154 59.2455 672.35 59.4242 671.546 59.6922L669.67 57.4142L666.454 57.6822L664.712 53.7962L660.96 53.2602L657.878 45.7562L659.486 42.1381L669.134 39.0561L677.844 34.7681L684.544 34.6342L686.822 32.8921L686.286 28.4701L685.348 27.3981H680.39L661.228 30.2122C662.836 32.4455 660.603 33.9195 654.528 34.6342L653.423 34.7686C652.351 34.9026 651.379 35.0361 650.508 35.1701C649.347 35.3488 648.409 35.4828 647.694 35.5721C647.471 35.6168 647.259 35.6614 647.058 35.7061L646.488 35.8402H645.416L639.654 45.0861V50.5802Z" fill="black"/>
<path d="M599.63 74.0302V2.34015H556.75V20.4301H579.53V74.0302L579.543 74.9941C579.669 79.7784 580.736 84.0131 582.746 87.6982C584.98 91.6288 588.062 94.7108 591.992 96.9442C595.923 99.0882 600.479 100.16 605.66 100.16H629.11V82.0701H607.67L607.67 81.0703H630.11V101.16H605.66C600.504 101.16 595.908 100.126 591.899 98.0283L591.514 97.8223L591.506 97.8184L591.498 97.8135C587.666 95.6363 584.605 92.6773 582.323 88.9482L581.877 88.1924L581.873 88.1846L581.868 88.1768C579.632 84.0777 578.53 79.3522 578.53 74.0303V21.4297H555.75V1.33984H600.631V74.0303L600.638 74.4365C600.712 76.4295 601.345 77.9982 602.482 79.2178C603.784 80.4318 605.482 81.0702 607.67 81.0703L607.67 82.0701L607.224 82.0615C605.015 81.9778 603.198 81.2662 601.774 79.9261C600.435 78.5025 599.722 76.6862 599.639 74.4775L599.63 74.0302Z" fill="black"/>
<path d="M463.527 21.3682V100.16H536.691C542.587 100.16 546.741 100.026 549.153 99.7582C551.415 99.4231 552.616 99.088 552.757 98.7529L552.771 98.6862L547.411 87.2962H481.215V65.9902H531.331V52.7242H481.215V34.2322H546.875V21.3682H463.527ZM547.875 35.2324H482.215V51.7246H532.331V66.9902H482.215V86.2959H548.045L553.676 98.2607L553.771 98.4629V98.6865L553.765 98.8096C553.705 99.4052 553.22 99.7166 553.055 99.8145C552.798 99.9665 552.479 100.083 552.15 100.181C551.478 100.38 550.517 100.567 549.299 100.747L549.281 100.75L549.263 100.752C546.79 101.027 542.586 101.16 536.69 101.16H462.526V20.3682H547.875V35.2324Z" fill="black"/>
<path d="M385.544 66.3486C385.45 65.6445 385.338 64.9442 385.204 64.2481C385.174 64.0437 385.14 63.8406 385.105 63.6387L385.305 63.5898L394.908 61.2227L395.026 61.1934H399.651L400.463 67.8633C401.168 66.2862 402.085 64.953 403.231 63.8848C405.416 61.8501 408.313 60.8809 411.809 60.8809C412.566 60.8809 413.335 61.0004 414.113 61.2295L414.447 61.334L415.202 61.5859L413.418 80.2617L411.941 78.9258C411.821 78.8172 411.526 78.6539 410.914 78.5273C410.32 78.4047 409.523 78.3359 408.503 78.3359C405.755 78.3359 404.31 79.0217 403.651 80.0215V101.16H387.225V71.8193L385.869 70.9834C385.865 70.5847 385.857 70.1873 385.841 69.791L388.224 71.2608V100.16H402.652V79.7475C403.515 78.1395 405.466 77.3355 408.503 77.3355L409.261 77.3486C410.948 77.4105 412.065 77.6891 412.612 78.1842L414.131 62.2828C413.427 62.0483 412.747 61.916 412.089 61.8867L411.808 61.8808C405.198 61.8808 401.282 65.5286 400.061 72.8242L398.766 62.1935H395.148L385.544 64.5608L385.544 66.3486Z" fill="black"/>
<path d="M385.874 71.3502C385.874 70.8283 385.862 70.3087 385.841 69.791L386.862 70.4209C386.87 70.73 386.874 71.0401 386.874 71.3506L386.87 71.9834C386.827 75.1501 386.464 78.3152 385.78 81.4775C385.142 84.7538 384.183 87.8538 382.904 90.7764L382.905 90.7773C381.986 92.8915 380.752 95.1265 379.212 97.4824C377.73 99.7972 376.009 101.757 374.042 103.35C371.988 105.012 369.622 105.851 366.98 105.851C364.012 105.851 361.479 105 359.453 103.255L359.055 102.895L359.037 102.877C357.242 101.082 355.887 98.8409 354.954 96.1807L354.772 95.6436L354.77 95.6348C353.845 92.6754 353.385 89.5817 353.385 86.3584C353.385 84.4187 353.57 82.5623 353.942 80.792C354.28 79.1895 354.622 77.8415 354.97 76.7568L354.734 75.1094L354.725 75.0391V72.8242C354.725 70.1655 355 67.2922 355.544 64.208C356.092 61.0997 356.962 58.1246 358.152 55.2852L358.157 55.2725L358.163 55.2607C359.455 52.4002 361.042 50.0516 362.941 48.2471C365.01 46.2772 367.538 45.292 370.465 45.292C373.093 45.2921 375.596 46.4098 377.959 48.4893C380.329 50.486 382.364 53.383 384.096 57.1162C385.119 59.255 385.814 61.5718 386.187 64.0596C386.207 64.1684 386.225 64.2777 386.245 64.3867L385.544 64.5608L385.544 66.3486C385.45 65.6445 385.338 64.9442 385.204 64.2481C384.847 61.8361 384.177 59.6028 383.194 57.5481C381.497 53.8855 379.532 51.1161 377.298 49.2401C375.205 47.3976 373.072 46.4189 370.899 46.3037L370.464 46.2921C367.784 46.2921 365.506 47.1855 363.63 48.9721L363.299 49.2969C361.655 50.9509 360.247 53.076 359.074 55.6721C357.913 58.4415 357.064 61.3448 356.528 64.3821C355.992 67.4195 355.724 70.2335 355.724 72.8242V74.9681C355.814 75.5935 355.903 76.2188 355.992 76.8441C355.635 77.9161 355.278 79.3008 354.92 80.9981L354.795 81.6387C354.521 83.1434 354.384 84.7166 354.384 86.3581L354.39 86.9424C354.442 89.858 354.887 92.6561 355.724 95.3362C356.618 98.1055 357.958 100.383 359.744 102.17C361.503 103.845 363.733 104.735 366.434 104.84L366.98 104.85C369.242 104.85 371.267 104.183 373.058 102.848L373.412 102.572C375.288 101.053 376.941 99.1775 378.37 96.9441C379.889 94.6215 381.095 92.4328 381.988 90.3782C383.161 87.6982 384.059 84.8612 384.682 81.8672L384.802 81.2662C385.472 78.1673 385.828 75.0685 385.87 71.9697L385.874 71.3502ZM358.806 86.0901V84.2141C358.806 83.4995 358.851 82.7848 358.94 82.0701C360.459 83.8568 362.201 85.4648 364.166 86.8941C366.093 88.1504 368.097 88.818 370.181 88.8965L370.598 88.9041C372.117 88.9041 373.502 88.5915 374.752 87.9661C375.087 87.8321 375.448 87.6475 375.833 87.4131L376.226 87.1621C376.852 86.7155 377.164 86.3581 377.164 86.0901C377.164 85.9115 377.075 85.8222 376.896 85.8222L375.958 86.0901C375.154 86.2688 374.306 86.4475 373.412 86.6261C372.519 86.8048 371.67 86.8941 370.866 86.8941L370.866 85.8945C371.596 85.8945 372.38 85.8129 373.217 85.6455C374.094 85.4701 374.926 85.2941 375.715 85.1191L376.622 84.8604L376.757 84.8223H376.896C377.14 84.8223 377.506 84.8834 377.805 85.1816C378.103 85.4799 378.164 85.8464 378.164 86.0898C378.164 86.5937 377.887 86.9838 377.683 87.2178C377.454 87.4791 377.15 87.7313 376.808 87.9756L376.795 87.9854L376.781 87.9941C376.223 88.3663 375.685 88.6626 375.171 88.873C373.777 89.5642 372.248 89.9043 370.599 89.9043C368.152 89.9043 365.821 89.1666 363.62 87.7314L363.599 87.7178L363.578 87.7031C362.218 86.7139 360.962 85.6375 359.807 84.4795V86.0898L359.816 87.0293C359.919 91.6413 360.791 95.0364 362.318 97.3271C363.998 99.8464 365.782 100.902 367.65 100.902L367.65 101.902L367.434 101.898C365.2 101.817 363.217 100.478 361.486 97.8821C359.812 95.3696 358.922 91.7577 358.817 87.0469L358.806 86.0901ZM380.318 74.0303C380.318 71.5656 380.184 69.1711 379.915 66.8467L379.791 65.8545C379.44 63.2208 378.914 60.6774 378.213 58.2246L378.212 58.2197C377.627 56.1309 376.628 54.3019 375.213 52.7207L375.195 52.7002L375.178 52.6787C374 51.207 372.306 50.5303 369.894 50.7715L369.886 50.7725H369.878C368.052 50.9246 366.41 51.8286 364.94 53.625C363.412 55.4925 362.219 57.6183 361.363 60.0088L361.089 60.8721C360.617 62.4387 360.34 63.8325 360.245 65.0596C360.415 64.7946 360.596 64.5177 360.788 64.2295C361.888 62.491 363.128 60.9282 364.509 59.5439C365.914 58.0447 367.413 57.0841 368.99 57.084C369.592 57.084 370.23 57.2029 370.729 57.6113C371.267 58.0512 371.465 58.675 371.465 59.29V60.2158L370.541 60.2871C369.752 60.3479 368.813 60.8461 367.736 62.0889C366.724 63.2706 365.739 64.7198 364.787 66.4473C363.916 68.1903 363.177 69.9302 362.568 71.667C362.04 73.3393 361.646 74.6523 361.384 75.6113L361.385 75.6123C361.287 76.0038 361.144 76.4774 360.961 77.0264C360.814 77.4659 360.744 77.8956 360.744 78.3184L360.755 78.4561C360.776 78.6219 360.833 78.874 360.957 79.2295C361.115 79.6833 361.359 80.248 361.699 80.9297C362.285 82.0272 363.237 83.1 364.606 84.1348L364.886 84.3418C366.268 85.3398 368.226 85.8945 370.866 85.8945L370.866 86.8941L370.354 86.8877C367.995 86.8242 366.079 86.3161 364.608 85.3633L364.3 85.1521C362.692 83.9908 361.531 82.7401 360.816 81.4001C360.147 80.0604 359.791 79.0738 359.749 78.4404L359.744 78.3181C359.744 77.8492 359.812 77.3801 359.949 76.9111L360.012 76.7101C360.191 76.1741 360.325 75.7275 360.414 75.3701C360.682 74.3875 361.084 73.0475 361.62 71.3502C362.168 69.7869 362.817 68.2234 363.569 66.6602L363.898 65.9901C364.881 64.2035 365.908 62.6848 366.98 61.4342C368.142 60.0941 369.303 59.3795 370.464 59.2901C370.464 58.4861 369.973 58.0841 368.99 58.0841C367.829 58.0841 366.578 58.7988 365.238 60.2281C363.898 61.5681 362.692 63.0868 361.62 64.7841C360.548 66.3921 359.878 67.5535 359.61 68.2682C359.376 67.7992 359.244 67.1594 359.215 66.3486L359.208 65.9901C359.208 64.2035 359.61 62.1041 360.414 59.6921C361.252 57.3473 362.404 55.2381 363.869 53.3643L364.166 52.9921C365.674 51.1497 367.417 50.0925 369.396 49.8203L369.794 49.7761C372.474 49.5081 374.529 50.2675 375.958 52.0541C377.477 53.7515 378.549 55.7168 379.174 57.9501C379.889 60.4515 380.425 63.0421 380.782 65.7221C381.14 68.4021 381.318 71.1715 381.318 74.0302L381.313 74.75C381.266 78.3513 380.866 81.9529 380.112 85.5541C379.308 89.3061 377.968 92.6561 376.092 95.6041C373.502 99.8028 370.688 101.902 367.65 101.902L367.65 100.902C370.164 100.902 372.715 99.1737 375.241 95.0791L375.249 95.0674C377.055 92.2291 378.353 88.9919 379.135 85.3447C379.924 81.5709 380.318 77.7997 380.318 74.0303Z" fill="black"/>
<path d="M264.655 1.00015V4.75215L272.025 5.69015C273.454 5.86882 274.303 6.27082 274.571 6.89615C274.839 7.43215 274.973 9.21881 274.973 12.2562V34.9022C270.992 32.306 266.424 30.9668 261.27 30.8857L260.769 30.8822C251.836 30.8822 244.778 33.9642 239.597 40.1282C234.505 46.2922 231.959 54.5555 231.959 64.9182V67.5982L231.966 68.5967C232.098 78.8381 234.285 86.858 238.525 92.6562C242.852 98.3678 248.605 101.313 255.782 101.491L256.481 101.5C260.68 101.5 264.298 100.473 267.335 98.4182C270.462 96.2742 273.276 93.1475 275.777 89.0382V100.16H300.701V96.4082L293.331 95.4702C291.902 95.2915 291.053 94.9342 290.785 94.3982C290.551 93.851 290.419 92.3804 290.39 89.9863L290.383 88.9042V1.00015H264.655ZM248.441 71.6182V60.8982C248.441 53.2155 249.558 47.1855 251.791 42.8082C254.024 38.3415 257.598 36.1082 262.511 36.1082L262.97 36.1133C267.683 36.2161 271.685 37.9118 274.973 41.2001V81.6682C272.114 87.2962 269.434 91.0482 266.933 92.9242C264.521 94.7108 262.198 95.6042 259.965 95.6042L259.965 94.6045C261.921 94.6045 264.04 93.8226 266.338 92.1201C268.615 90.4098 271.171 86.9032 273.973 81.4248V41.6191C270.827 38.6088 267.024 37.1084 262.511 37.1084C260.21 37.1084 258.279 37.6291 256.676 38.6309C255.072 39.6332 253.735 41.1556 252.686 43.2549L252.682 43.2627C250.549 47.4419 249.441 53.2936 249.441 60.8984V71.6182L249.453 73.1406C249.569 80.3613 250.525 85.6194 252.227 89.0244L252.405 89.3701C254.331 92.971 256.848 94.6044 259.965 94.6045L259.965 95.6042L259.632 95.5986C256.326 95.4859 253.688 93.6851 251.718 90.1963L251.523 89.8422C249.597 86.2409 248.573 80.6765 248.453 73.1494L248.441 71.6182ZM291.383 88.9043L291.39 89.9756C291.402 90.9875 291.432 91.8218 291.48 92.4824C291.543 93.333 291.631 93.7832 291.69 93.96C291.721 93.9902 291.807 94.0606 292.011 94.1465C292.317 94.2755 292.786 94.3939 293.455 94.4775L293.457 94.4785L301.701 95.5273V101.16H274.777V92.3477C272.694 95.2192 270.405 97.5256 267.9 99.2432L267.896 99.2461C264.67 101.428 260.85 102.5 256.481 102.5C248.67 102.5 242.386 99.4095 237.728 93.2598L237.718 93.2461C233.171 87.0284 230.959 78.4395 230.959 67.5986V64.918C230.959 54.3928 233.547 45.8817 238.826 39.4912L238.832 39.4844C244.226 33.0681 251.578 29.8818 260.77 29.8818C265.651 29.8819 270.059 30.9609 273.973 33.1328V12.2559C273.973 10.7477 273.939 9.57009 273.875 8.71289C273.843 8.28371 273.804 7.94998 273.762 7.70312C273.738 7.56886 273.717 7.47849 273.701 7.42188L273.677 7.34375L273.663 7.31738L273.652 7.29004C273.646 7.27427 273.593 7.16566 273.306 7.0293C273.087 6.92574 272.777 6.82877 272.357 6.75195L271.901 6.68262H271.898L263.655 5.63281V0H291.383V88.9043Z" fill="black"/>
<path d="M162.793 2.90234C167.816 1.11016 173.567 0.315191 180.027 0.492187L180.037 0.493164C184.841 0.671084 189.68 1.55939 194.554 3.15234C199.568 4.6746 204.176 7.18073 208.371 10.6602C212.588 14.0696 216.158 18.4963 219.091 23.917C222.049 29.2976 223.864 35.8463 224.571 43.5312C225.197 49.8753 224.39 56.1703 222.164 62.4072L222.165 62.4082C220.038 68.5222 217.069 74.1527 213.257 79.2949C209.448 84.4322 205.059 88.8224 200.089 92.4609L200.079 92.4678C195.108 96.0183 190.105 98.3933 185.07 99.5625C182.156 100.248 178.985 100.366 175.569 99.9346L174.883 99.8408L174.869 99.8389L174.854 99.8369C171.503 99.2504 168.085 98.2336 164.601 96.793L163.903 96.499L163.876 96.4873C160.463 94.9057 157.096 92.9367 153.774 90.584L153.11 90.1084L153.101 90.1016C149.856 87.6887 146.884 84.9637 144.186 81.9277L143.649 81.3164L143.642 81.3066C140.977 78.1427 138.702 74.7426 136.817 71.1084L136.445 70.3789L136.441 70.3711L136.438 70.3623C135.513 68.4256 134.762 66.4445 134.184 64.4199C134.184 64.0544 134.18 63.6843 134.168 63.3102C134.168 60.9875 134.079 59.2902 133.9 58.2182C133.569 56.677 133.139 55.2359 132.614 53.8945C132.522 51.4938 132.588 48.9599 132.811 46.2939V46.2842L132.812 46.2754C133.254 41.9393 134.095 37.6482 135.333 33.4033L135.337 33.3906C136.668 29.0427 138.487 24.873 140.792 20.8828L140.796 20.877C143.21 16.764 146.252 13.1849 149.918 10.1445C153.595 7.00811 157.891 4.59584 162.793 2.90234ZM180 1.49219C173.632 1.31771 168.005 2.10287 163.119 3.84766C158.321 5.50521 154.133 7.86068 150.557 10.9141C146.98 13.8802 144.014 17.3698 141.658 21.3828C139.39 25.3086 137.602 29.4089 136.293 33.6836C135.072 37.8711 134.243 42.1022 133.807 46.377C133.458 50.5645 133.501 54.403 133.938 57.8926C134.374 62.0801 135.508 66.0931 137.34 69.9316C139.259 73.7702 141.615 77.347 144.406 80.6621C147.198 83.89 150.295 86.7689 153.697 89.2988C157.187 91.8288 160.72 93.9225 164.297 95.5801C167.961 97.1504 171.538 98.2409 175.027 98.8516C178.604 99.375 181.876 99.2878 184.842 98.5899C189.727 97.4557 194.613 95.1439 199.498 91.6543C204.383 88.0775 208.702 83.7591 212.453 78.6992C216.204 73.6393 219.127 68.0996 221.221 62.0801C223.402 55.9733 224.187 49.8229 223.576 43.6289C222.878 36.0391 221.09 29.627 218.211 24.3926C215.332 19.071 211.842 14.7526 207.742 11.4375C203.642 8.03516 199.149 5.59245 194.264 4.10938C189.465 2.53907 184.711 1.66667 180 1.49219ZM172.148 18.1113C175.202 15.6686 178.779 14.5781 182.879 14.8398C185.234 15.0143 187.503 15.9303 189.684 17.5879C191.952 19.2454 193.871 21.6009 195.441 24.6543C197.012 27.6204 198.102 31.2409 198.713 35.5156C199.411 39.7031 199.367 44.4141 198.582 49.6484C197.797 54.8828 196.576 59.8991 194.918 64.6973C193.26 69.4954 191.298 73.683 189.029 77.2598C186.761 80.8366 184.231 83.5846 181.439 85.5039C178.735 87.3359 175.9 87.9466 172.934 87.3359C166.827 86.1146 162.247 82.6686 159.193 76.9981C156.227 71.3275 155.355 63.8249 156.576 54.4902C157.187 49.8665 158.103 45.1556 159.324 40.3574C160.633 35.5592 162.334 31.2409 164.428 27.4023C166.521 23.5638 169.095 20.4668 172.148 18.1113ZM182.814 15.8369C178.949 15.5904 175.622 16.614 172.773 18.8926L172.767 18.8975L172.759 18.9033C169.829 21.1634 167.342 24.148 165.306 27.8809C163.254 31.6424 161.58 35.8871 160.289 40.6201C159.079 45.3769 158.172 50.0438 157.567 54.6211C156.362 63.8369 157.243 71.1047 160.074 76.5244C162.901 81.7733 167.057 84.9892 172.59 86.2402L173.13 86.3555L173.135 86.3564C175.815 86.9082 178.378 86.3697 180.879 84.6758C183.533 82.8497 185.973 80.2123 188.185 76.7246C190.404 73.2248 192.336 69.1098 193.973 64.3711C195.609 59.6333 196.816 54.6763 197.593 49.5C198.318 44.6672 198.396 40.3199 197.845 36.4482L197.727 35.6797L197.725 35.6689L197.723 35.6572C197.124 31.4655 196.061 27.9618 194.558 25.1221L194.552 25.1113C193.132 22.3503 191.438 20.2235 189.487 18.6934L189.094 18.3955L189.078 18.3838C187.029 16.8266 184.944 15.9967 182.814 15.8369Z" fill="black"/>
<path d="M113.703 39.9326C116.035 40.019 118.15 40.3488 120.04 40.9346L120.414 41.0557L120.418 41.0566C126.818 43.2158 131.217 47.4619 133.608 53.6953C133.66 55.1464 133.769 56.5455 133.938 57.8926C134.164 60.0674 134.581 62.1947 135.184 64.2754C135.193 66.9172 134.913 69.3615 134.332 71.6016C133.05 76.7236 130.854 81.4795 127.748 85.8643L127.747 85.8662C122.092 93.8014 114.988 99.0411 106.441 101.522L106.432 101.525C104.13 102.17 101.865 102.54 99.6377 102.633L99.6309 102.634C91.6553 102.912 85.4314 100.019 81.1104 93.9297C80.5403 93.2574 80.0599 92.5358 79.6738 91.7637C75.2137 83.7404 75.4199 74.3876 80.0547 63.8457L80.0586 63.8369L80.0625 63.8291C82.2553 59.0781 85.1811 54.8707 88.8389 51.2129C92.3013 47.7505 95.9247 45.1301 99.7119 43.375C103.336 41.5666 106.979 40.4649 110.64 40.084C110.683 40.0719 110.72 40.0624 110.747 40.0566C110.833 40.0385 110.923 40.025 111.01 40.0146C111.184 39.9938 111.398 39.9785 111.643 39.9668C112.135 39.9434 112.812 39.9326 113.666 39.9326H113.703ZM113.666 40.9322C111.969 40.9322 111.031 40.9768 110.852 41.0662C107.279 41.4235 103.706 42.4955 100.132 44.2822L99.4473 44.6104C96.0292 46.3011 92.7288 48.7376 89.5463 51.9202C85.9729 55.4935 83.1143 59.6028 80.9703 64.2482C76.4143 74.6108 76.2803 83.6335 80.5683 91.3162C80.9256 92.0308 81.3723 92.7008 81.9083 93.3262C85.8891 98.9513 91.5467 101.726 98.8809 101.65L99.5963 101.634C101.74 101.545 103.929 101.187 106.162 100.562C114.47 98.1502 121.394 93.0582 126.932 85.2862C129.78 81.2663 131.842 76.9321 133.119 72.2842L133.364 71.3502C133.99 68.9382 134.258 66.2582 134.168 63.3102C134.168 60.9875 134.079 59.2902 133.9 58.2182C132.114 49.9102 127.513 44.5055 120.098 42.0042C118.222 41.3788 116.078 41.0215 113.666 40.9322ZM110.45 47.3642C111.612 47.1855 113.13 47.2302 115.006 47.4982C118.312 48.4808 120.411 50.6248 121.304 53.9302C122.198 57.2355 121.662 62.7742 119.696 70.5462C118.178 76.8888 116.659 81.4448 115.14 84.2142C112.371 89.5742 108.619 93.0135 103.884 94.5322L103.517 94.6445C101.685 95.1836 99.9312 95.3697 98.2563 95.2022C94.1469 94.7555 91.5563 92.4328 90.4843 88.2342C90.3279 87.687 90.2403 86.661 90.2207 85.1562L90.2163 84.4822C90.2163 81.6235 90.9309 77.2462 92.3603 71.3502L92.8963 69.4742C94.7136 62.3779 96.8665 57.2518 99.3545 54.0957L99.5963 53.7962C102.455 50.3122 106.073 48.1682 110.45 47.3642ZM91.2207 85.1572C91.2379 86.4337 91.3048 87.2788 91.3975 87.7529L91.4463 87.959L91.4492 87.9727L91.4531 87.9863C91.9522 89.941 92.7832 91.3809 93.8984 92.3809C95.009 93.3766 96.474 94.0012 98.3574 94.207C99.9892 94.37 101.727 94.169 103.581 93.5791C108.011 92.1576 111.577 88.9324 114.252 83.7549L114.264 83.7334C115.715 81.0875 117.209 76.6409 118.724 70.3135L118.727 70.3008C119.702 66.4444 120.316 63.1693 120.577 60.4668C120.823 57.9216 120.752 55.9392 120.411 54.4766L120.339 54.1914C119.543 51.2467 117.725 49.3707 114.79 48.4775C113.001 48.2266 111.62 48.1969 110.611 48.3506C106.479 49.114 103.076 51.1321 100.369 54.4307L100.366 54.4346C97.9198 57.3873 95.7308 62.438 93.8652 69.7227L93.8613 69.7354L93.8574 69.749C93.6788 70.3743 93.5009 70.9997 93.3223 71.625C91.9021 77.4897 91.2158 81.7565 91.2158 84.4824L91.2207 85.1572Z" fill="black"/>
<path d="M1 2.93164V100.16H38.8184V61.0986H69.5703V46.1152H38.8184L38.8838 17.915H80.7588V2.93164H1ZM81.7588 18.915H39.8818L39.8203 45.1152H70.5703V62.0986H39.8184V101.16H0V1.93164H81.7588V18.915Z" fill="black"/>
</svg>
