<svg width="106" height="27" viewBox="0 0 106 27" fill="none" xmlns="http://www.w3.org/2000/svg">
<path d="M32.78 7.96C32.32 7.57 31.83 7.25 31.33 7C30.82 6.75 30.36 6.62 29.95 6.62C28.73 6.62 27.83 6.87 27.25 7.36C26.68 7.85 26.4 8.7 26.4 9.91V14.56C26.4 15.23 26.38 15.87 26.33 16.48C26.29 17.08 26.26 17.57 26.26 17.95C26.26 18.23 26.43 18.55 26.77 18.89C27.13 19.22 27.57 19.54 28.09 19.85C28.63 20.16 29.16 20.42 29.7 20.63C30.25 20.82 30.72 20.92 31.11 20.92C32.17 20.92 32.96 20.61 33.5 20C34.05 19.37 34.33 18.47 34.33 17.3V15.47C34.34 14.79 34.36 14.1 34.37 13.42C34.38 12.72 34.39 12.09 34.39 11.54C34.4 10.97 34.41 10.55 34.41 10.27C34.41 9.94 34.25 9.57 33.94 9.15C33.64 8.73 33.26 8.34 32.78 7.97V7.96ZM32.18 10.46C32.18 10.86 32.18 11.32 32.16 11.84C32.15 12.35 32.12 12.86 32.09 13.38C32.08 13.89 32.06 14.35 32.05 14.76V15.7C32.05 16.83 31.86 17.64 31.49 18.13C31.12 18.62 30.42 18.87 29.39 18.87C28.84 18.87 28.56 18.65 28.56 18.22C28.56 18.04 28.57 17.72 28.6 17.26C28.64 16.8 28.67 16.21 28.67 15.5V10.74C28.67 10.26 28.73 9.88 28.85 9.58C28.98 9.28 29.24 9.06 29.61 8.91C29.98 8.76 30.52 8.69 31.22 8.69C31.58 8.69 31.83 8.76 31.98 8.89C32.13 9.02 32.2 9.25 32.2 9.56C32.2 9.75 32.2 10.05 32.18 10.45V10.46Z" fill="black"/>
<path d="M18.5 8.41H12.94V3.32C13.51 3.73 14.14 4.1 14.83 4.43C15.52 4.76 16.23 5.03 16.97 5.24L20.39 1.88L19.61 1.3L18.72 2.11C17.91 1.85 17.15 1.55 16.44 1.19C15.74 0.84 15.06 0.44 14.41 0L9.02 4.75V18.81C9.02 19.51 8.82 20 8.41 20.25C7.76 20.19 7.1 20.11 6.44 20C5.79 19.89 5.13 19.81 4.47 19.78C5.23 19.3 5.95 18.74 6.64 18.11C7.33 17.48 7.67 16.78 7.67 16V6.8C7.67 5.6 7.87 4.66 8.28 3.99C8.69 3.3 9.21 2.72 9.84 2.24C10.01 2.13 10.17 2.02 10.34 1.91C10.51 1.8 10.66 1.69 10.81 1.58C11 1.45 11.18 1.33 11.37 1.22C11.56 1.11 11.74 0.99 11.93 0.86L11.96 0.14C11.65 0.34 11.27 0.51 10.85 0.64C10.44 0.77 9.99 0.83 9.49 0.83C8.77 0.83 8.07 0.72 7.41 0.5C6.74 0.26 6.05 0.14 5.33 0.14C4.52 0.14 3.78 0.33 3.14 0.7C2.51 1.05 1.97 1.51 1.53 2.06C1.1 2.62 0.77 3.19 0.53 3.78H1.2C1.33 3.41 1.56 3.1 1.89 2.86C2.24 2.6 2.66 2.47 3.14 2.47C3.62 2.47 4.03 2.54 4.42 2.69C4.81 2.82 5.19 2.96 5.56 3.11C5.95 3.24 6.37 3.3 6.84 3.3C7.19 3.3 7.54 3.25 7.9 3.16C7.16 3.75 6.46 4.37 5.79 5.02C5.4 5.39 5.02 5.76 4.65 6.13C4.3 6.5 4.12 7.07 4.12 7.82V8.51C3.73 8.57 3.35 8.63 2.98 8.7C2.61 8.76 2.25 8.87 1.9 9.03C1.21 9.36 0.72 9.96 0.43 10.81C0.15 11.64 0.24 12.5 0.71 13.37H1.24C1.13 12.8 1.24 12.36 1.55 12.06C1.86 11.75 2.29 11.59 2.83 11.59H4.14V13.56C4.14 14.86 4.1 16.03 4.03 17.09C3.96 18.15 3.67 19.04 3.17 19.78C2.3 19.91 1.55 20.24 0.92 20.78C0.31 21.32 0 22.05 0 22.97C0 23.89 0.33 24.73 1 25.36C1.69 26.01 2.5 26.33 3.44 26.33C3.46 26.33 3.48 26.33 3.5 26.3V25.58C3.15 25.58 2.85 25.43 2.61 25.14C2.37 24.86 2.25 24.57 2.25 24.25C2.25 23.93 2.38 23.69 2.64 23.5C2.9 23.31 3.21 23.22 3.58 23.22H4.39C4.95 23.2 5.49 23.1 6.03 22.91C6.59 22.72 7.02 22.49 7.34 22.22C7.88 21.74 8.47 21.13 9.12 20.39C9.77 19.65 10.39 18.92 10.98 18.2C11.57 17.46 12.05 16.85 12.42 16.37C12.81 15.87 13 15.62 13 15.62V11.65H15.39L18.56 8.4L18.5 8.41Z" fill="black"/>
<path d="M22.19 10.99C21.88 10.89 21.52 10.83 21.12 10.81C20.84 10.81 20.68 10.81 20.65 10.83C20.05 10.89 19.46 11.07 18.86 11.37C18.25 11.65 17.66 12.08 17.1 12.64C16.5 13.24 16.03 13.92 15.67 14.69C14.91 16.42 14.89 17.92 15.6 19.2C15.66 19.32 15.73 19.43 15.82 19.53C16.5 20.5 17.49 20.96 18.77 20.91C19.13 20.9 19.49 20.84 19.86 20.73C21.24 20.33 22.4 19.48 23.32 18.18C23.83 17.47 24.18 16.69 24.39 15.86C24.49 15.46 24.54 15.01 24.52 14.52C24.52 14.13 24.51 13.85 24.48 13.67C24.18 12.29 23.42 11.38 22.18 10.97L22.19 10.99ZM22.13 15.75C21.88 16.81 21.62 17.57 21.37 18.03C20.91 18.92 20.28 19.5 19.49 19.75C19.16 19.85 18.85 19.89 18.55 19.86C17.87 19.79 17.43 19.4 17.25 18.7C17.22 18.6 17.21 18.39 17.21 18.07C17.21 17.59 17.33 16.86 17.57 15.88C17.6 15.78 17.63 15.67 17.66 15.57C17.97 14.35 18.34 13.48 18.78 12.96C19.26 12.38 19.86 12.02 20.59 11.89C20.78 11.86 21.04 11.87 21.35 11.91C21.9 12.07 22.25 12.43 22.4 12.98C22.55 13.53 22.46 14.45 22.13 15.75Z" fill="black"/>
<path d="M94.39 15.57L93.15 15.28C92.68 15.17 92.33 14.96 92.09 14.65C91.85 14.33 91.73 13.95 91.73 13.53C91.73 13.07 91.87 12.73 92.14 12.49C92.42 12.24 92.76 12.11 93.18 12.11C93.78 12.11 94.21 12.33 94.46 12.78C94.72 13.22 94.77 13.85 94.6 14.67L96.58 14.31C96.66 13.82 96.6 13.36 96.38 12.92C96.16 12.49 95.8 12.14 95.28 11.88C94.76 11.62 94.09 11.48 93.26 11.48C92.49 11.48 91.87 11.61 91.39 11.88C90.91 12.13 90.56 12.47 90.33 12.91C90.11 13.33 90.01 13.79 90.01 14.3C90.01 14.98 90.2 15.58 90.59 16.08C90.99 16.57 91.59 16.91 92.39 17.11L93.63 17.4C94.23 17.54 94.64 17.75 94.85 18.03C95.08 18.29 95.19 18.59 95.19 18.91C95.19 19.38 95.02 19.74 94.67 19.99C94.33 20.23 93.9 20.35 93.36 20.35C92.78 20.35 92.26 20.19 91.79 19.86C91.33 19.54 91.06 18.98 90.98 18.19L89.81 18.66C89.99 19.28 90.28 19.76 90.67 20.1C91.08 20.44 91.52 20.67 92 20.8C92.49 20.92 92.94 20.98 93.35 20.98C94.53 20.98 95.41 20.72 96 20.19C96.6 19.65 96.9 18.98 96.9 18.17C96.9 17.52 96.7 16.98 96.31 16.55C95.91 16.11 95.27 15.78 94.38 15.58L94.39 15.57Z" fill="black"/>
<path d="M88.49 5.35H85.54V20.98H88.49V5.35Z" fill="black"/>
<path d="M45.88 19.39C45.68 19.15 45.57 18.73 45.57 18.13V6.58C45.16 6.65 44.71 6.71 44.22 6.76C43.74 6.8 43.21 6.81 42.64 6.81H41.78C41.55 6.8 41.3 6.79 41.02 6.77V7.58L41.61 7.63C42.17 7.69 42.56 7.84 42.76 8.08C42.96 8.31 43.07 8.72 43.07 9.32V12.09C42.78 11.85 42.47 11.63 42.08 11.46C41.52 11.22 40.89 11.1 40.19 11.1C39.19 11.1 38.33 11.31 37.6 11.73C36.88 12.14 36.32 12.71 35.91 13.46C35.5 14.2 35.3 15.09 35.3 16.11C35.3 17.07 35.49 17.92 35.86 18.65C36.23 19.37 36.75 19.93 37.41 20.32C38.07 20.72 38.84 20.91 39.73 20.91C40.62 20.91 41.33 20.72 41.96 20.35C42.42 20.09 42.79 19.74 43.08 19.32V20.86C43.49 20.78 43.93 20.72 44.41 20.68C44.9 20.64 45.44 20.63 46.01 20.63C46.36 20.63 46.65 20.63 46.87 20.65C47.1 20.65 47.35 20.65 47.63 20.67V19.86L47.04 19.81C46.48 19.75 46.09 19.61 45.89 19.38L45.88 19.39ZM42.19 19.3C41.73 19.59 41.22 19.73 40.66 19.73C39.8 19.73 39.12 19.41 38.64 18.76C38.16 18.11 37.92 17.19 37.92 15.99C37.92 14.79 38.17 13.79 38.68 13.13C39.2 12.47 39.93 12.14 40.9 12.14C41.44 12.14 41.92 12.25 42.34 12.46C42.65 12.62 42.89 12.82 43.08 13.06V18.34C42.85 18.74 42.57 19.08 42.2 19.31L42.19 19.3Z" fill="black"/>
<path d="M104.91 12.34C104.58 12.12 104.18 12.01 103.7 12.01C103.03 12.01 102.39 12.15 101.79 12.42C101.19 12.68 100.65 13.05 100.16 13.51C99.67 13.97 99.25 14.48 98.9 15.06C98.55 15.63 98.28 16.21 98.08 16.82C97.9 17.43 97.8 18.02 97.8 18.6C97.8 19.1 97.91 19.53 98.13 19.87C98.36 20.21 98.66 20.46 99.04 20.64C99.43 20.81 99.87 20.9 100.36 20.9C100.94 20.9 101.47 20.8 101.96 20.59C102.45 20.37 102.88 20.09 103.25 19.76C103.62 19.42 103.92 19.07 104.15 18.71L103.89 18.58C103.47 19.08 103.04 19.43 102.6 19.63C102.16 19.83 101.8 19.92 101.5 19.92C101.13 19.92 100.83 19.81 100.59 19.59C100.36 19.36 100.25 18.94 100.25 18.33C100.25 17.97 100.29 17.59 100.35 17.21C100.65 17.13 100.97 17.04 101.29 16.92C101.8 16.75 102.3 16.54 102.78 16.3C103.27 16.06 103.71 15.79 104.1 15.48C104.49 15.18 104.8 14.84 105.03 14.47C105.27 14.1 105.39 13.7 105.39 13.28C105.39 12.86 105.23 12.52 104.9 12.32L104.91 12.34ZM103.21 14.51C102.96 15.01 102.62 15.45 102.2 15.83C101.92 16.09 101.57 16.33 101.17 16.55C100.93 16.68 100.67 16.78 100.42 16.9C100.43 16.83 100.44 16.77 100.46 16.7C100.6 16.13 100.78 15.59 101 15.07C101.23 14.55 101.48 14.08 101.75 13.68C102.02 13.27 102.29 12.94 102.57 12.7C102.85 12.45 103.11 12.32 103.35 12.32C103.44 12.32 103.5 12.36 103.55 12.43C103.59 12.5 103.62 12.64 103.62 12.85C103.62 13.44 103.49 13.99 103.23 14.5L103.21 14.51Z" fill="black"/>
<path d="M65.91 17.29C65.68 17.64 65.39 18.02 65.03 18.43C64.67 18.84 64.28 19.22 63.87 19.57C63.47 19.92 63.08 20.17 62.71 20.33C62.5 20.41 62.32 20.45 62.19 20.45C61.95 20.45 61.83 20.32 61.83 20.05C61.83 19.94 61.84 19.82 61.87 19.69C61.91 19.54 61.96 19.4 62.01 19.27C62.16 18.88 62.34 18.5 62.55 18.13C62.76 17.76 62.96 17.38 63.13 17.01C63.36 16.57 63.47 16.2 63.47 15.91C63.47 15.58 63.29 15.36 62.93 15.25C62.8 15.21 62.64 15.18 62.47 15.17C62.31 15.16 62.14 15.15 61.97 15.15C61.82 15.14 61.64 15.13 61.43 15.13C61.22 15.12 61.03 15.1 60.87 15.07C60.91 14.92 60.96 14.74 61.01 14.53C61.06 14.3 61.09 14.08 61.09 13.87C61.09 13.36 61.02 13 60.87 12.79C60.72 12.58 60.56 12.47 60.37 12.47C60.16 12.47 59.95 12.6 59.75 12.87C59.55 13.12 59.45 13.45 59.45 13.85C59.45 14.18 59.54 14.52 59.71 14.87C59.88 15.2 60.12 15.43 60.41 15.55C60.37 15.71 60.27 15.96 60.11 16.29C59.96 16.62 59.77 16.98 59.53 17.37C59.31 17.73 59.06 18.07 58.78 18.39C58.81 18.14 58.83 17.88 58.83 17.6C58.83 16.5 58.57 15.68 58.05 15.14C57.53 14.59 56.69 14.32 55.53 14.32C54.37 14.32 53.47 14.61 52.94 15.18C52.41 15.75 52.14 16.59 52.14 17.71C52.14 18.83 52.4 19.67 52.93 20.18C53.46 20.7 54.29 20.95 55.42 20.95C56.55 20.95 57.46 20.68 58 20.13C58.32 19.81 58.54 19.38 58.67 18.86C58.73 18.83 58.81 18.78 58.92 18.67C59.35 18.19 59.7 17.71 59.98 17.23C60.27 16.75 60.53 16.2 60.74 15.59C60.94 15.63 61.15 15.66 61.38 15.69C61.61 15.7 61.8 15.75 61.96 15.83C62.12 15.9 62.2 16.03 62.2 16.23C62.2 16.39 62.15 16.57 62.06 16.77C61.9 17.14 61.72 17.49 61.52 17.81C61.33 18.12 61.17 18.44 61.02 18.79C60.94 18.96 60.88 19.14 60.84 19.33C60.81 19.5 60.8 19.66 60.8 19.81C60.8 20.14 60.89 20.42 61.06 20.63C61.23 20.83 61.49 20.93 61.82 20.93C62.09 20.93 62.41 20.85 62.78 20.69C63.18 20.52 63.59 20.25 64.02 19.89C64.45 19.52 64.85 19.12 65.22 18.69C65.61 18.25 65.91 17.85 66.14 17.49C66.25 17.34 66.3 17.22 66.3 17.13C66.3 17.06 66.27 17.03 66.22 17.03C66.13 17.03 66.02 17.12 65.9 17.29H65.91ZM56.16 18.93C56.16 19.25 56.1 19.5 55.98 19.68C55.87 19.86 55.7 19.95 55.48 19.95C55.02 19.95 54.8 19.48 54.8 18.54V16.12C54.8 15.8 54.86 15.56 54.98 15.38C55.1 15.21 55.27 15.12 55.48 15.12C55.94 15.12 56.16 15.6 56.16 16.57V18.93ZM60.53 14.9C60.4 14.81 60.29 14.64 60.21 14.4C60.14 14.16 60.11 13.93 60.11 13.7C60.11 13.54 60.13 13.4 60.17 13.28C60.21 13.16 60.26 13.09 60.31 13.08C60.46 13.05 60.53 13.32 60.53 13.88V14.28C60.54 14.4 60.55 14.51 60.55 14.62C60.55 14.75 60.55 14.85 60.53 14.9Z" fill="black"/>
<path d="M81.89 7.24L84.67 4.35L84.48 4.12L83.76 4.75C83 4.5 82.29 4.21 81.64 3.89C81 3.56 80.39 3.18 79.8 2.75L73.66 6.51C74.28 5.48 75.11 4.71 76.16 4.18L75.93 3.83C74.81 4.19 73.76 4.78 72.78 5.6C71.82 6.42 71.04 7.43 70.45 8.61C69.87 9.78 69.59 11.08 69.59 12.51C69.59 13.65 69.8 14.73 70.22 15.75C70.64 16.78 71.22 17.69 71.95 18.5C72.7 19.31 73.56 19.95 74.54 20.41C75.54 20.86 76.59 21.09 77.71 21.09C78.92 21.09 80.02 20.83 81 20.32C81.98 19.81 82.77 19.1 83.36 18.2C83.97 17.3 84.29 16.26 84.34 15.1H83.9C83.46 15.91 82.83 16.63 82.01 17.27C81.19 17.91 80.21 18.3 79.07 18.44V12.93H81.66L84.51 9.97H79.07V5.89C79.99 6.42 80.94 6.88 81.92 7.27L81.89 7.24ZM72.42 11.42C72.42 10 72.65 8.74 73.1 7.62L74.34 6.87V14.34L73.03 14.88C72.63 13.87 72.42 12.72 72.42 11.43V11.42ZM78.39 18.47H78.3C77.1 18.47 76.08 18.2 75.24 17.65C74.4 17.09 73.75 16.35 73.28 15.43L77.34 13.75V5.03L77.53 4.91C77.81 5.11 78.1 5.3 78.39 5.47V18.47Z" fill="black"/>
</svg>
