<svg width="721" height="117" viewBox="0 0 721 117" fill="none" xmlns="http://www.w3.org/2000/svg">
<mask id="path-1-outside-1_40000065_583" maskUnits="userSpaceOnUse" x="0" y="0" width="721" height="117" fill="black">
<rect fill="white" width="721" height="117"/>
<path d="M1 1H86.7109V17.1016H41.7109L41.6406 47.4062H74.6875V63.5078H41.6406V105.484H1V1Z"/>
<path d="M110.083 46.3904C110.261 46.301 111.199 46.2564 112.897 46.2564C115.309 46.3457 117.453 46.703 119.329 47.3284C126.743 49.8297 131.344 55.2344 133.131 63.5424C133.309 64.6144 133.399 66.3117 133.399 68.6344C133.488 71.5824 133.22 74.2624 132.595 76.6744C131.344 81.677 129.2 86.3224 126.163 90.6104C120.624 98.3824 113.701 103.474 105.393 105.886C103.159 106.512 100.971 106.869 98.8268 106.958C91.1441 107.226 85.2481 104.457 81.1387 98.6504C80.6027 98.025 80.1561 97.355 79.7988 96.6404C75.5108 88.9577 75.6448 79.935 80.2008 69.5724C82.3448 64.927 85.2034 60.8177 88.7767 57.2444C92.1714 53.8497 95.7001 51.3037 99.3627 49.6064C102.936 47.8197 106.509 46.7477 110.083 46.3904ZM114.237 52.8224C112.361 52.5544 110.842 52.5097 109.681 52.6884C105.303 53.4924 101.685 55.6364 98.8268 59.1204C96.2361 62.247 94.0028 67.473 92.1268 74.7984C91.9481 75.4237 91.7694 76.049 91.5908 76.6744C90.1614 82.5704 89.4467 86.9477 89.4467 89.8064C89.4467 91.6824 89.5361 92.933 89.7148 93.5584C90.7868 97.757 93.3774 100.08 97.4867 100.526C99.2734 100.705 101.149 100.482 103.115 99.8564C107.849 98.3377 111.601 94.8984 114.371 89.5384C115.889 86.769 117.408 82.213 118.927 75.8704C120.892 68.0984 121.428 62.5597 120.535 59.2544C119.641 55.949 117.542 53.805 114.237 52.8224Z"/>
<path d="M179.23 6.81641C183.941 6.99089 188.696 7.86328 193.494 9.43359C198.38 10.9167 202.872 13.3594 206.973 16.7617C211.073 20.0768 214.562 24.3952 217.441 29.7168C220.32 34.9512 222.109 41.3633 222.807 48.9531C223.417 55.1471 222.632 61.2975 220.451 67.4043C218.357 73.4238 215.435 78.9635 211.684 84.0234C207.932 89.0833 203.614 93.4017 198.729 96.9785C193.843 100.468 188.958 102.78 184.072 103.914C181.106 104.612 177.835 104.699 174.258 104.176C170.768 103.565 167.191 102.475 163.527 100.904C159.951 99.2467 156.417 97.153 152.928 94.623C149.525 92.0931 146.428 89.2142 143.637 85.9863C140.845 82.6712 138.49 79.0944 136.57 75.2559C134.738 71.4173 133.604 67.4043 133.168 63.2168C132.732 59.7272 132.688 55.8887 133.037 51.7012C133.473 47.4264 134.302 43.1953 135.523 39.0078C136.832 34.7331 138.62 30.6328 140.889 26.707C143.244 22.694 146.21 19.2044 149.787 16.2383C153.364 13.1849 157.551 10.8294 162.35 9.17188C167.235 7.42708 172.862 6.64193 179.23 6.81641ZM155.807 59.8145C154.585 69.1491 155.458 76.6517 158.424 82.3223C161.477 87.9928 166.057 91.4388 172.164 92.6602C175.13 93.2708 177.965 92.6602 180.67 90.8281C183.462 88.9089 185.992 86.1608 188.26 82.584C190.528 79.0072 192.491 74.8197 194.148 70.0215C195.806 65.2233 197.027 60.207 197.812 54.9727C198.598 49.7383 198.641 45.0273 197.943 40.8398C197.333 36.5651 196.242 32.9447 194.672 29.9785C193.102 26.9251 191.182 24.5697 188.914 22.9121C186.733 21.2546 184.465 20.3385 182.109 20.1641C178.009 19.9023 174.432 20.9928 171.379 23.4355C168.326 25.791 165.752 28.888 163.658 32.7266C161.564 36.5651 159.863 40.8835 158.555 45.6816C157.333 50.4798 156.417 55.1908 155.807 59.8145Z"/>
<path d="M299.932 101.732V105.484H275.008V94.3624C272.506 98.4717 269.692 101.598 266.566 103.742C263.528 105.797 259.91 106.824 255.712 106.824C248.208 106.824 242.222 103.876 237.756 97.9804C233.378 91.995 231.19 83.6424 231.19 72.9224V70.2424C231.19 59.8797 233.736 51.6164 238.828 45.4524C244.009 39.2884 251.066 36.2064 260 36.2064C265.36 36.2064 270.094 37.5464 274.204 40.2264V17.5804C274.204 14.543 274.07 12.7564 273.802 12.2204C273.534 11.595 272.685 11.193 271.256 11.0144L263.886 10.0764V6.32437H289.614V94.2284C289.614 97.2657 289.748 99.097 290.016 99.7224C290.284 100.258 291.132 100.616 292.562 100.794L299.932 101.732ZM247.672 76.9424C247.672 85.2504 248.699 91.325 250.754 95.1664C252.808 99.0077 255.622 100.928 259.196 100.928C261.429 100.928 263.752 100.035 266.164 98.2484C268.665 96.3724 271.345 92.6204 274.204 86.9924V46.5244C270.809 43.1297 266.655 41.4324 261.742 41.4324C256.828 41.4324 253.255 43.6657 251.022 48.1324C248.788 52.5097 247.672 58.5397 247.672 66.2224V76.9424Z"/>
<path d="M366.211 110.174C363.263 110.174 360.851 109.281 358.975 107.494C357.188 105.708 355.848 103.43 354.955 100.66C354.062 97.8017 353.615 94.809 353.615 91.6824C353.615 89.8064 353.794 88.0197 354.151 86.3224C354.508 84.625 354.866 83.2404 355.223 82.1684C355.134 81.543 355.044 80.9177 354.955 80.2924C354.955 79.5777 354.955 78.863 354.955 78.1484C354.955 75.5577 355.223 72.7437 355.759 69.7064C356.295 66.669 357.144 63.7657 358.305 60.9964C359.556 58.227 361.074 55.9937 362.861 54.2964C364.737 52.5097 367.015 51.6164 369.695 51.6164C372.018 51.6164 374.296 52.599 376.529 54.5644C378.762 56.4404 380.728 59.2097 382.425 62.8724C383.408 64.927 384.078 67.1604 384.435 69.5724C384.882 71.895 385.105 74.2624 385.105 76.6744C385.105 79.9797 384.748 83.285 384.033 86.5904C383.408 89.8064 382.47 92.8437 381.219 95.7024C380.326 97.757 379.12 99.9457 377.601 102.268C376.172 104.502 374.519 106.378 372.643 107.896C370.767 109.415 368.623 110.174 366.211 110.174ZM366.881 107.226C369.918 107.226 372.732 105.127 375.323 100.928C377.199 97.9804 378.539 94.6304 379.343 90.8784C380.147 87.037 380.549 83.1957 380.549 79.3544C380.549 76.4957 380.37 73.7264 380.013 71.0464C379.656 68.3664 379.12 65.7757 378.405 63.2744C377.78 61.041 376.708 59.0757 375.189 57.3784C373.76 55.5917 371.705 54.8324 369.025 55.1004C366.881 55.279 365.005 56.351 363.397 58.3164C361.789 60.2817 360.538 62.515 359.645 65.0164C358.841 67.4284 358.439 69.5277 358.439 71.3144C358.439 72.297 358.573 73.0564 358.841 73.5924C359.109 72.8777 359.779 71.7164 360.851 70.1084C361.923 68.411 363.129 66.8924 364.469 65.5524C365.809 64.123 367.06 63.4084 368.221 63.4084C369.204 63.4084 369.695 63.8104 369.695 64.6144C368.534 64.7037 367.372 65.4184 366.211 66.7584C365.139 68.009 364.112 69.5277 363.129 71.3144C362.236 73.101 361.476 74.8877 360.851 76.6744C360.315 78.3717 359.913 79.7117 359.645 80.6944C359.556 81.0517 359.422 81.4984 359.243 82.0344C359.064 82.5704 358.975 83.1064 358.975 83.6424C358.975 84.2677 359.332 85.295 360.047 86.7244C360.762 88.0644 361.923 89.315 363.531 90.4764C365.139 91.6377 367.328 92.2184 370.097 92.2184C370.901 92.2184 371.75 92.129 372.643 91.9504C373.536 91.7717 374.385 91.593 375.189 91.4144L376.127 91.1464C376.306 91.1464 376.395 91.2357 376.395 91.4144C376.395 91.6824 376.082 92.0397 375.457 92.4864C374.921 92.8437 374.43 93.1117 373.983 93.2904C372.732 93.9157 371.348 94.2284 369.829 94.2284C367.596 94.2284 365.452 93.5584 363.397 92.2184C361.432 90.789 359.69 89.181 358.171 87.3944C358.082 88.109 358.037 88.8237 358.037 89.5384C358.037 90.1637 358.037 90.789 358.037 91.4144C358.037 96.5957 358.93 100.526 360.717 103.206C362.504 105.886 364.558 107.226 366.881 107.226Z"/>
<path d="M401.882 105.484H387.455V76.585L384.775 74.9324V69.885L394.378 67.5177H397.996L399.291 78.1484C400.512 70.8528 404.428 67.205 411.039 67.205C411.783 67.205 412.557 67.339 413.361 67.607L411.843 83.5084C411.217 82.9426 409.848 82.6597 407.733 82.6597C404.696 82.6597 402.746 83.4637 401.882 85.0717V105.484Z"/>
<path d="M454.131 98.6797C452.648 95.3646 451.993 92.1367 452.168 88.9961C452.342 85.7682 453.04 82.7585 454.262 79.9668C455.57 77.0879 457.228 74.5143 459.234 72.2461C461.328 69.8906 463.553 67.8841 465.908 66.2266C468.264 64.4818 470.619 63.1732 472.975 62.3008C475.417 61.4284 477.555 61.0794 479.387 61.2539C481.219 61.3411 482.658 61.9954 483.705 63.2168C484.752 64.4382 485.101 66.3138 484.752 68.8438C484.752 72.2461 483.661 75.2122 481.48 77.7422C479.387 80.2721 477.031 82.5404 474.414 84.5469C471.884 86.5534 469.529 88.3854 467.348 90.043C465.254 91.6133 464.207 93.0964 464.207 94.4922C464.207 95.2773 464.643 95.888 465.516 96.3242C466.475 96.7604 467.566 97.1094 468.787 97.3711C470.008 97.5456 471.23 97.6764 472.451 97.7637C473.673 97.8509 474.545 97.9382 475.068 98.0254C483.269 96.2806 489.419 95.2337 493.52 94.8848C497.62 94.4486 500.193 94.4922 501.24 95.0156C502.287 95.4518 502.069 96.1934 500.586 97.2402C499.19 98.1999 497.009 99.2467 494.043 100.381C491.077 101.428 487.631 102.387 483.705 103.26C479.779 104.132 475.897 104.656 472.059 104.83C468.22 104.917 464.643 104.525 461.328 103.652C458.1 102.78 455.701 101.122 454.131 98.6797ZM477.031 68.8438C475.286 68.8438 473.629 69.3236 472.059 70.2832C470.488 71.2428 469.049 72.4642 467.74 73.9473C466.519 75.3431 465.472 76.9134 464.6 78.6582C463.727 80.3158 463.073 81.8861 462.637 83.3691C462.811 83.4564 462.942 83.5 463.029 83.5H463.422C464.643 83.5 466.039 82.9766 467.609 81.9297C469.18 80.8828 470.663 79.6178 472.059 78.1348C473.454 76.5645 474.632 74.9505 475.592 73.293C476.551 71.6354 477.031 70.1523 477.031 68.8438Z"/>
<path d="M547.182 105.484C542.001 105.484 537.445 104.412 533.514 102.268C529.583 100.035 526.501 96.953 524.268 93.0224C522.124 89.0917 521.052 84.5357 521.052 79.3544V25.7544H498.272V7.66437H541.152V79.3544C541.152 81.7664 541.867 83.7317 543.296 85.2504C544.815 86.6797 546.78 87.3944 549.192 87.3944H570.632V105.484H547.182Z"/>
<path d="M581.176 50.4104L586.938 41.1644C587.295 41.1644 587.652 41.1644 588.01 41.1644C588.367 41.075 588.769 40.9857 589.216 40.8964C589.93 40.807 590.868 40.673 592.03 40.4944C593.191 40.3157 594.531 40.137 596.05 39.9584C602.124 39.2437 604.358 37.7697 602.75 35.5364L621.912 32.7224H626.87L627.808 33.7944L628.344 38.2164L626.066 39.9584L619.366 40.0924L610.656 44.3804L601.008 47.4624L599.4 51.0804L602.482 58.5844L606.234 59.1204L607.976 63.0064L611.192 62.7384L613.068 65.0164C613.872 64.7484 614.676 64.5697 615.48 64.4804C616.284 64.3017 616.998 64.3017 617.624 64.4804C618.07 64.5697 618.562 64.659 619.098 64.7484C619.634 64.7484 620.259 64.8377 620.974 65.0164C621.867 65.2844 622.492 65.597 622.85 65.9544C623.207 66.2224 623.52 66.4904 623.788 66.7584C624.056 66.937 624.368 67.1157 624.726 67.2944C625.083 67.473 625.708 67.5624 626.602 67.5624C626.87 68.0984 627.361 68.6344 628.076 69.1704C628.88 69.7064 629.728 70.2424 630.622 70.7784C631.604 71.3144 632.542 71.8504 633.436 72.3864C634.418 72.9224 635.133 73.4584 635.58 73.9944C635.758 74.173 635.848 74.307 635.848 74.3964C635.937 74.4857 636.071 74.6197 636.25 74.7984L637.054 81.2304L634.106 89.2704L633.302 94.8984L626.736 98.2484L615.882 102.536L609.316 101.598C606.993 101.241 604.938 101.241 603.152 101.598C601.365 101.956 599.712 102.134 598.194 102.134H583.454L581.846 98.1144L582.918 94.2284L602.348 92.2184L608.78 91.4144L616.82 82.8384L615.614 78.9524L609.718 77.8804L599.4 75.0664L597.658 76.0044L592.03 73.4584L588.412 71.0464L584.258 61.9344L581.176 55.9044V50.4104Z"/>
<path d="M719.794 72.6544C719.794 78.6397 718.856 83.5977 716.98 87.5284C715.193 91.459 712.826 95.077 709.878 98.3824C709.074 99.2757 707.868 100.348 706.26 101.598C704.652 102.76 702.999 103.921 701.302 105.082C699.694 106.154 698.399 107.092 697.416 107.896C694.111 110.576 690.046 112.586 685.222 113.926C680.487 115.266 675.395 115.936 669.946 115.936C665.747 115.936 661.683 115.668 657.752 115.132C653.911 114.596 650.739 113.346 648.238 111.38C645.826 109.415 644.62 106.333 644.62 102.134C644.62 98.3824 645.379 94.3624 646.898 90.0744C648.506 85.697 650.516 81.409 652.928 77.2104C655.34 73.0117 657.886 69.1704 660.566 65.6864C663.246 62.113 665.703 59.2544 667.936 57.1104C666.417 55.7704 665.211 54.2517 664.318 52.5544C663.514 50.7677 663.112 48.847 663.112 46.7924C663.112 42.951 664.05 39.333 665.926 35.9384C667.802 32.4544 670.259 29.417 673.296 26.8264C676.333 24.1464 679.683 22.047 683.346 20.5284C687.098 19.0097 690.85 18.2504 694.602 18.2504C697.818 18.2504 700.989 18.6077 704.116 19.3224C707.243 19.9477 709.833 21.1537 711.888 22.9404C714.032 24.727 715.104 27.2284 715.104 30.4444C715.104 33.3924 714.925 35.715 714.568 37.4124C714.211 39.0204 713.362 40.137 712.022 40.7624C710.771 41.3877 708.761 41.7004 705.992 41.7004C703.223 41.7004 700.677 41.1197 698.354 39.9584C696.031 38.797 694.647 37.591 694.2 36.3404C694.111 35.983 694.021 35.581 693.932 35.1344C693.932 34.5984 693.932 34.0177 693.932 33.3924C693.932 31.695 694.155 29.9977 694.602 28.3004C695.049 26.5137 695.808 25.6204 696.88 25.6204C698.22 25.6204 698.89 26.2457 698.89 27.4964C698.89 28.3004 698.711 29.283 698.354 30.4444C698.086 31.5164 697.952 32.5437 697.952 33.5264C697.952 34.6877 698.309 35.6704 699.024 36.4744C699.828 37.189 701.436 37.5464 703.848 37.5464C706.439 37.5464 708.225 37.055 709.208 36.0724C710.191 35.0004 710.682 33.1244 710.682 30.4444C710.682 28.0324 709.833 26.2904 708.136 25.2184C706.439 24.1464 704.339 23.4764 701.838 23.2084C699.426 22.851 697.014 22.6724 694.602 22.6724C691.386 22.6724 688.17 23.2977 684.954 24.5484C681.827 25.799 678.924 27.541 676.244 29.7744C673.653 32.0077 671.554 34.5984 669.946 37.5464C668.338 40.405 667.534 43.487 667.534 46.7924C667.534 49.5617 668.651 52.1524 670.884 54.5644C672.492 53.2244 674.413 51.8397 676.646 50.4104C678.879 48.8917 681.202 47.641 683.614 46.6584C686.026 45.5864 688.349 45.0504 690.582 45.0504C692.101 45.0504 693.441 45.6757 694.602 46.9264C695.853 48.0877 696.478 49.383 696.478 50.8124C696.478 52.063 695.585 53.5817 693.798 55.3684C692.101 57.0657 689.957 58.5844 687.366 59.9244C684.775 61.175 682.095 61.8004 679.326 61.8004C678.969 61.8004 678.567 61.8004 678.12 61.8004C677.763 61.711 677.361 61.6217 676.914 61.5324C675.038 61.175 673.251 60.5497 671.554 59.6564C668.874 62.0684 666.105 65.2397 663.246 69.1704C660.477 73.0117 658.109 77.255 656.144 81.9004C654.268 86.4564 653.33 91.1017 653.33 95.8364C653.33 100.75 654.849 104.591 657.886 107.36C661.013 110.13 665.033 111.514 669.946 111.514C674.859 111.514 679.549 110.442 684.016 108.298C688.483 106.154 692.235 103.921 695.272 101.598C696.791 100.437 698.265 99.231 699.694 97.9804C701.123 96.7297 702.463 95.4344 703.714 94.0944C705.501 92.129 707.243 90.2084 708.94 88.3324C710.727 86.367 712.201 84.1784 713.362 81.7664C714.613 79.265 715.238 76.2277 715.238 72.6544C715.238 71.493 714.791 70.5104 713.898 69.7064C713.005 68.9024 712.067 68.5004 711.084 68.5004C707.779 68.5004 704.965 68.9024 702.642 69.7064C700.409 70.5104 698.488 72.2077 696.88 74.7984C696.523 75.245 696.21 75.7364 695.942 76.2724C695.674 76.719 695.54 77.2997 695.54 78.0144C695.54 78.9077 695.987 79.533 696.88 79.8904C697.773 80.1584 698.131 80.739 697.952 81.6324V82.7044C697.952 83.0617 697.863 83.3744 697.684 83.6424C697.505 83.9104 696.925 84.1337 695.942 84.3124C694.781 84.4017 693.441 83.687 691.922 82.1684C690.403 80.5604 689.644 78.8184 689.644 76.9424C689.644 75.513 690.001 74.3517 690.716 73.4584C691.431 72.4757 692.279 71.4037 693.262 70.2424C695.763 67.3837 698.399 65.6417 701.168 65.0164C704.027 64.391 707.332 64.0784 711.084 64.0784C713.407 64.0784 715.417 64.9717 717.114 66.7584C718.901 68.4557 719.794 70.421 719.794 72.6544ZM686.026 50.9464C683.346 50.9464 681.068 51.6164 679.192 52.9564C677.405 54.207 675.753 55.5917 674.234 57.1104C675.217 57.557 676.199 57.7804 677.182 57.7804C678.522 57.7804 680.13 57.557 682.006 57.1104C683.971 56.6637 685.669 56.083 687.098 55.3684C688.617 54.5644 689.376 53.6264 689.376 52.5544C689.376 52.197 688.885 51.8397 687.902 51.4824C687.009 51.125 686.383 50.9464 686.026 50.9464Z"/>
</mask>
<path d="M1 1H86.7109V17.1016H41.7109L41.6406 47.4062H74.6875V63.5078H41.6406V105.484H1V1Z" fill="black"/>
<path d="M110.083 46.3904C110.261 46.301 111.199 46.2564 112.897 46.2564C115.309 46.3457 117.453 46.703 119.329 47.3284C126.743 49.8297 131.344 55.2344 133.131 63.5424C133.309 64.6144 133.399 66.3117 133.399 68.6344C133.488 71.5824 133.22 74.2624 132.595 76.6744C131.344 81.677 129.2 86.3224 126.163 90.6104C120.624 98.3824 113.701 103.474 105.393 105.886C103.159 106.512 100.971 106.869 98.8268 106.958C91.1441 107.226 85.2481 104.457 81.1387 98.6504C80.6027 98.025 80.1561 97.355 79.7988 96.6404C75.5108 88.9577 75.6448 79.935 80.2008 69.5724C82.3448 64.927 85.2034 60.8177 88.7767 57.2444C92.1714 53.8497 95.7001 51.3037 99.3627 49.6064C102.936 47.8197 106.509 46.7477 110.083 46.3904ZM114.237 52.8224C112.361 52.5544 110.842 52.5097 109.681 52.6884C105.303 53.4924 101.685 55.6364 98.8268 59.1204C96.2361 62.247 94.0028 67.473 92.1268 74.7984C91.9481 75.4237 91.7694 76.049 91.5908 76.6744C90.1614 82.5704 89.4467 86.9477 89.4467 89.8064C89.4467 91.6824 89.5361 92.933 89.7148 93.5584C90.7868 97.757 93.3774 100.08 97.4867 100.526C99.2734 100.705 101.149 100.482 103.115 99.8564C107.849 98.3377 111.601 94.8984 114.371 89.5384C115.889 86.769 117.408 82.213 118.927 75.8704C120.892 68.0984 121.428 62.5597 120.535 59.2544C119.641 55.949 117.542 53.805 114.237 52.8224Z" fill="black"/>
<path d="M179.23 6.81641C183.941 6.99089 188.696 7.86328 193.494 9.43359C198.38 10.9167 202.872 13.3594 206.973 16.7617C211.073 20.0768 214.562 24.3952 217.441 29.7168C220.32 34.9512 222.109 41.3633 222.807 48.9531C223.417 55.1471 222.632 61.2975 220.451 67.4043C218.357 73.4238 215.435 78.9635 211.684 84.0234C207.932 89.0833 203.614 93.4017 198.729 96.9785C193.843 100.468 188.958 102.78 184.072 103.914C181.106 104.612 177.835 104.699 174.258 104.176C170.768 103.565 167.191 102.475 163.527 100.904C159.951 99.2467 156.417 97.153 152.928 94.623C149.525 92.0931 146.428 89.2142 143.637 85.9863C140.845 82.6712 138.49 79.0944 136.57 75.2559C134.738 71.4173 133.604 67.4043 133.168 63.2168C132.732 59.7272 132.688 55.8887 133.037 51.7012C133.473 47.4264 134.302 43.1953 135.523 39.0078C136.832 34.7331 138.62 30.6328 140.889 26.707C143.244 22.694 146.21 19.2044 149.787 16.2383C153.364 13.1849 157.551 10.8294 162.35 9.17188C167.235 7.42708 172.862 6.64193 179.23 6.81641ZM155.807 59.8145C154.585 69.1491 155.458 76.6517 158.424 82.3223C161.477 87.9928 166.057 91.4388 172.164 92.6602C175.13 93.2708 177.965 92.6602 180.67 90.8281C183.462 88.9089 185.992 86.1608 188.26 82.584C190.528 79.0072 192.491 74.8197 194.148 70.0215C195.806 65.2233 197.027 60.207 197.812 54.9727C198.598 49.7383 198.641 45.0273 197.943 40.8398C197.333 36.5651 196.242 32.9447 194.672 29.9785C193.102 26.9251 191.182 24.5697 188.914 22.9121C186.733 21.2546 184.465 20.3385 182.109 20.1641C178.009 19.9023 174.432 20.9928 171.379 23.4355C168.326 25.791 165.752 28.888 163.658 32.7266C161.564 36.5651 159.863 40.8835 158.555 45.6816C157.333 50.4798 156.417 55.1908 155.807 59.8145Z" fill="black"/>
<path d="M299.932 101.732V105.484H275.008V94.3624C272.506 98.4717 269.692 101.598 266.566 103.742C263.528 105.797 259.91 106.824 255.712 106.824C248.208 106.824 242.222 103.876 237.756 97.9804C233.378 91.995 231.19 83.6424 231.19 72.9224V70.2424C231.19 59.8797 233.736 51.6164 238.828 45.4524C244.009 39.2884 251.066 36.2064 260 36.2064C265.36 36.2064 270.094 37.5464 274.204 40.2264V17.5804C274.204 14.543 274.07 12.7564 273.802 12.2204C273.534 11.595 272.685 11.193 271.256 11.0144L263.886 10.0764V6.32437H289.614V94.2284C289.614 97.2657 289.748 99.097 290.016 99.7224C290.284 100.258 291.132 100.616 292.562 100.794L299.932 101.732ZM247.672 76.9424C247.672 85.2504 248.699 91.325 250.754 95.1664C252.808 99.0077 255.622 100.928 259.196 100.928C261.429 100.928 263.752 100.035 266.164 98.2484C268.665 96.3724 271.345 92.6204 274.204 86.9924V46.5244C270.809 43.1297 266.655 41.4324 261.742 41.4324C256.828 41.4324 253.255 43.6657 251.022 48.1324C248.788 52.5097 247.672 58.5397 247.672 66.2224V76.9424Z" fill="black"/>
<path d="M366.211 110.174C363.263 110.174 360.851 109.281 358.975 107.494C357.188 105.708 355.848 103.43 354.955 100.66C354.062 97.8017 353.615 94.809 353.615 91.6824C353.615 89.8064 353.794 88.0197 354.151 86.3224C354.508 84.625 354.866 83.2404 355.223 82.1684C355.134 81.543 355.044 80.9177 354.955 80.2924C354.955 79.5777 354.955 78.863 354.955 78.1484C354.955 75.5577 355.223 72.7437 355.759 69.7064C356.295 66.669 357.144 63.7657 358.305 60.9964C359.556 58.227 361.074 55.9937 362.861 54.2964C364.737 52.5097 367.015 51.6164 369.695 51.6164C372.018 51.6164 374.296 52.599 376.529 54.5644C378.762 56.4404 380.728 59.2097 382.425 62.8724C383.408 64.927 384.078 67.1604 384.435 69.5724C384.882 71.895 385.105 74.2624 385.105 76.6744C385.105 79.9797 384.748 83.285 384.033 86.5904C383.408 89.8064 382.47 92.8437 381.219 95.7024C380.326 97.757 379.12 99.9457 377.601 102.268C376.172 104.502 374.519 106.378 372.643 107.896C370.767 109.415 368.623 110.174 366.211 110.174ZM366.881 107.226C369.918 107.226 372.732 105.127 375.323 100.928C377.199 97.9804 378.539 94.6304 379.343 90.8784C380.147 87.037 380.549 83.1957 380.549 79.3544C380.549 76.4957 380.37 73.7264 380.013 71.0464C379.656 68.3664 379.12 65.7757 378.405 63.2744C377.78 61.041 376.708 59.0757 375.189 57.3784C373.76 55.5917 371.705 54.8324 369.025 55.1004C366.881 55.279 365.005 56.351 363.397 58.3164C361.789 60.2817 360.538 62.515 359.645 65.0164C358.841 67.4284 358.439 69.5277 358.439 71.3144C358.439 72.297 358.573 73.0564 358.841 73.5924C359.109 72.8777 359.779 71.7164 360.851 70.1084C361.923 68.411 363.129 66.8924 364.469 65.5524C365.809 64.123 367.06 63.4084 368.221 63.4084C369.204 63.4084 369.695 63.8104 369.695 64.6144C368.534 64.7037 367.372 65.4184 366.211 66.7584C365.139 68.009 364.112 69.5277 363.129 71.3144C362.236 73.101 361.476 74.8877 360.851 76.6744C360.315 78.3717 359.913 79.7117 359.645 80.6944C359.556 81.0517 359.422 81.4984 359.243 82.0344C359.064 82.5704 358.975 83.1064 358.975 83.6424C358.975 84.2677 359.332 85.295 360.047 86.7244C360.762 88.0644 361.923 89.315 363.531 90.4764C365.139 91.6377 367.328 92.2184 370.097 92.2184C370.901 92.2184 371.75 92.129 372.643 91.9504C373.536 91.7717 374.385 91.593 375.189 91.4144L376.127 91.1464C376.306 91.1464 376.395 91.2357 376.395 91.4144C376.395 91.6824 376.082 92.0397 375.457 92.4864C374.921 92.8437 374.43 93.1117 373.983 93.2904C372.732 93.9157 371.348 94.2284 369.829 94.2284C367.596 94.2284 365.452 93.5584 363.397 92.2184C361.432 90.789 359.69 89.181 358.171 87.3944C358.082 88.109 358.037 88.8237 358.037 89.5384C358.037 90.1637 358.037 90.789 358.037 91.4144C358.037 96.5957 358.93 100.526 360.717 103.206C362.504 105.886 364.558 107.226 366.881 107.226Z" fill="black"/>
<path d="M401.882 105.484H387.455V76.585L384.775 74.9324V69.885L394.378 67.5177H397.996L399.291 78.1484C400.512 70.8528 404.428 67.205 411.039 67.205C411.783 67.205 412.557 67.339 413.361 67.607L411.843 83.5084C411.217 82.9426 409.848 82.6597 407.733 82.6597C404.696 82.6597 402.746 83.4637 401.882 85.0717V105.484Z" fill="black"/>
<path d="M454.131 98.6797C452.648 95.3646 451.993 92.1367 452.168 88.9961C452.342 85.7682 453.04 82.7585 454.262 79.9668C455.57 77.0879 457.228 74.5143 459.234 72.2461C461.328 69.8906 463.553 67.8841 465.908 66.2266C468.264 64.4818 470.619 63.1732 472.975 62.3008C475.417 61.4284 477.555 61.0794 479.387 61.2539C481.219 61.3411 482.658 61.9954 483.705 63.2168C484.752 64.4382 485.101 66.3138 484.752 68.8438C484.752 72.2461 483.661 75.2122 481.48 77.7422C479.387 80.2721 477.031 82.5404 474.414 84.5469C471.884 86.5534 469.529 88.3854 467.348 90.043C465.254 91.6133 464.207 93.0964 464.207 94.4922C464.207 95.2773 464.643 95.888 465.516 96.3242C466.475 96.7604 467.566 97.1094 468.787 97.3711C470.008 97.5456 471.23 97.6764 472.451 97.7637C473.673 97.8509 474.545 97.9382 475.068 98.0254C483.269 96.2806 489.419 95.2337 493.52 94.8848C497.62 94.4486 500.193 94.4922 501.24 95.0156C502.287 95.4518 502.069 96.1934 500.586 97.2402C499.19 98.1999 497.009 99.2467 494.043 100.381C491.077 101.428 487.631 102.387 483.705 103.26C479.779 104.132 475.897 104.656 472.059 104.83C468.22 104.917 464.643 104.525 461.328 103.652C458.1 102.78 455.701 101.122 454.131 98.6797ZM477.031 68.8438C475.286 68.8438 473.629 69.3236 472.059 70.2832C470.488 71.2428 469.049 72.4642 467.74 73.9473C466.519 75.3431 465.472 76.9134 464.6 78.6582C463.727 80.3158 463.073 81.8861 462.637 83.3691C462.811 83.4564 462.942 83.5 463.029 83.5H463.422C464.643 83.5 466.039 82.9766 467.609 81.9297C469.18 80.8828 470.663 79.6178 472.059 78.1348C473.454 76.5645 474.632 74.9505 475.592 73.293C476.551 71.6354 477.031 70.1523 477.031 68.8438Z" fill="black"/>
<path d="M547.182 105.484C542.001 105.484 537.445 104.412 533.514 102.268C529.583 100.035 526.501 96.953 524.268 93.0224C522.124 89.0917 521.052 84.5357 521.052 79.3544V25.7544H498.272V7.66437H541.152V79.3544C541.152 81.7664 541.867 83.7317 543.296 85.2504C544.815 86.6797 546.78 87.3944 549.192 87.3944H570.632V105.484H547.182Z" fill="black"/>
<path d="M581.176 50.4104L586.938 41.1644C587.295 41.1644 587.652 41.1644 588.01 41.1644C588.367 41.075 588.769 40.9857 589.216 40.8964C589.93 40.807 590.868 40.673 592.03 40.4944C593.191 40.3157 594.531 40.137 596.05 39.9584C602.124 39.2437 604.358 37.7697 602.75 35.5364L621.912 32.7224H626.87L627.808 33.7944L628.344 38.2164L626.066 39.9584L619.366 40.0924L610.656 44.3804L601.008 47.4624L599.4 51.0804L602.482 58.5844L606.234 59.1204L607.976 63.0064L611.192 62.7384L613.068 65.0164C613.872 64.7484 614.676 64.5697 615.48 64.4804C616.284 64.3017 616.998 64.3017 617.624 64.4804C618.07 64.5697 618.562 64.659 619.098 64.7484C619.634 64.7484 620.259 64.8377 620.974 65.0164C621.867 65.2844 622.492 65.597 622.85 65.9544C623.207 66.2224 623.52 66.4904 623.788 66.7584C624.056 66.937 624.368 67.1157 624.726 67.2944C625.083 67.473 625.708 67.5624 626.602 67.5624C626.87 68.0984 627.361 68.6344 628.076 69.1704C628.88 69.7064 629.728 70.2424 630.622 70.7784C631.604 71.3144 632.542 71.8504 633.436 72.3864C634.418 72.9224 635.133 73.4584 635.58 73.9944C635.758 74.173 635.848 74.307 635.848 74.3964C635.937 74.4857 636.071 74.6197 636.25 74.7984L637.054 81.2304L634.106 89.2704L633.302 94.8984L626.736 98.2484L615.882 102.536L609.316 101.598C606.993 101.241 604.938 101.241 603.152 101.598C601.365 101.956 599.712 102.134 598.194 102.134H583.454L581.846 98.1144L582.918 94.2284L602.348 92.2184L608.78 91.4144L616.82 82.8384L615.614 78.9524L609.718 77.8804L599.4 75.0664L597.658 76.0044L592.03 73.4584L588.412 71.0464L584.258 61.9344L581.176 55.9044V50.4104Z" fill="black"/>
<path d="M719.794 72.6544C719.794 78.6397 718.856 83.5977 716.98 87.5284C715.193 91.459 712.826 95.077 709.878 98.3824C709.074 99.2757 707.868 100.348 706.26 101.598C704.652 102.76 702.999 103.921 701.302 105.082C699.694 106.154 698.399 107.092 697.416 107.896C694.111 110.576 690.046 112.586 685.222 113.926C680.487 115.266 675.395 115.936 669.946 115.936C665.747 115.936 661.683 115.668 657.752 115.132C653.911 114.596 650.739 113.346 648.238 111.38C645.826 109.415 644.62 106.333 644.62 102.134C644.62 98.3824 645.379 94.3624 646.898 90.0744C648.506 85.697 650.516 81.409 652.928 77.2104C655.34 73.0117 657.886 69.1704 660.566 65.6864C663.246 62.113 665.703 59.2544 667.936 57.1104C666.417 55.7704 665.211 54.2517 664.318 52.5544C663.514 50.7677 663.112 48.847 663.112 46.7924C663.112 42.951 664.05 39.333 665.926 35.9384C667.802 32.4544 670.259 29.417 673.296 26.8264C676.333 24.1464 679.683 22.047 683.346 20.5284C687.098 19.0097 690.85 18.2504 694.602 18.2504C697.818 18.2504 700.989 18.6077 704.116 19.3224C707.243 19.9477 709.833 21.1537 711.888 22.9404C714.032 24.727 715.104 27.2284 715.104 30.4444C715.104 33.3924 714.925 35.715 714.568 37.4124C714.211 39.0204 713.362 40.137 712.022 40.7624C710.771 41.3877 708.761 41.7004 705.992 41.7004C703.223 41.7004 700.677 41.1197 698.354 39.9584C696.031 38.797 694.647 37.591 694.2 36.3404C694.111 35.983 694.021 35.581 693.932 35.1344C693.932 34.5984 693.932 34.0177 693.932 33.3924C693.932 31.695 694.155 29.9977 694.602 28.3004C695.049 26.5137 695.808 25.6204 696.88 25.6204C698.22 25.6204 698.89 26.2457 698.89 27.4964C698.89 28.3004 698.711 29.283 698.354 30.4444C698.086 31.5164 697.952 32.5437 697.952 33.5264C697.952 34.6877 698.309 35.6704 699.024 36.4744C699.828 37.189 701.436 37.5464 703.848 37.5464C706.439 37.5464 708.225 37.055 709.208 36.0724C710.191 35.0004 710.682 33.1244 710.682 30.4444C710.682 28.0324 709.833 26.2904 708.136 25.2184C706.439 24.1464 704.339 23.4764 701.838 23.2084C699.426 22.851 697.014 22.6724 694.602 22.6724C691.386 22.6724 688.17 23.2977 684.954 24.5484C681.827 25.799 678.924 27.541 676.244 29.7744C673.653 32.0077 671.554 34.5984 669.946 37.5464C668.338 40.405 667.534 43.487 667.534 46.7924C667.534 49.5617 668.651 52.1524 670.884 54.5644C672.492 53.2244 674.413 51.8397 676.646 50.4104C678.879 48.8917 681.202 47.641 683.614 46.6584C686.026 45.5864 688.349 45.0504 690.582 45.0504C692.101 45.0504 693.441 45.6757 694.602 46.9264C695.853 48.0877 696.478 49.383 696.478 50.8124C696.478 52.063 695.585 53.5817 693.798 55.3684C692.101 57.0657 689.957 58.5844 687.366 59.9244C684.775 61.175 682.095 61.8004 679.326 61.8004C678.969 61.8004 678.567 61.8004 678.12 61.8004C677.763 61.711 677.361 61.6217 676.914 61.5324C675.038 61.175 673.251 60.5497 671.554 59.6564C668.874 62.0684 666.105 65.2397 663.246 69.1704C660.477 73.0117 658.109 77.255 656.144 81.9004C654.268 86.4564 653.33 91.1017 653.33 95.8364C653.33 100.75 654.849 104.591 657.886 107.36C661.013 110.13 665.033 111.514 669.946 111.514C674.859 111.514 679.549 110.442 684.016 108.298C688.483 106.154 692.235 103.921 695.272 101.598C696.791 100.437 698.265 99.231 699.694 97.9804C701.123 96.7297 702.463 95.4344 703.714 94.0944C705.501 92.129 707.243 90.2084 708.94 88.3324C710.727 86.367 712.201 84.1784 713.362 81.7664C714.613 79.265 715.238 76.2277 715.238 72.6544C715.238 71.493 714.791 70.5104 713.898 69.7064C713.005 68.9024 712.067 68.5004 711.084 68.5004C707.779 68.5004 704.965 68.9024 702.642 69.7064C700.409 70.5104 698.488 72.2077 696.88 74.7984C696.523 75.245 696.21 75.7364 695.942 76.2724C695.674 76.719 695.54 77.2997 695.54 78.0144C695.54 78.9077 695.987 79.533 696.88 79.8904C697.773 80.1584 698.131 80.739 697.952 81.6324V82.7044C697.952 83.0617 697.863 83.3744 697.684 83.6424C697.505 83.9104 696.925 84.1337 695.942 84.3124C694.781 84.4017 693.441 83.687 691.922 82.1684C690.403 80.5604 689.644 78.8184 689.644 76.9424C689.644 75.513 690.001 74.3517 690.716 73.4584C691.431 72.4757 692.279 71.4037 693.262 70.2424C695.763 67.3837 698.399 65.6417 701.168 65.0164C704.027 64.391 707.332 64.0784 711.084 64.0784C713.407 64.0784 715.417 64.9717 717.114 66.7584C718.901 68.4557 719.794 70.421 719.794 72.6544ZM686.026 50.9464C683.346 50.9464 681.068 51.6164 679.192 52.9564C677.405 54.207 675.753 55.5917 674.234 57.1104C675.217 57.557 676.199 57.7804 677.182 57.7804C678.522 57.7804 680.13 57.557 682.006 57.1104C683.971 56.6637 685.669 56.083 687.098 55.3684C688.617 54.5644 689.376 53.6264 689.376 52.5544C689.376 52.197 688.885 51.8397 687.902 51.4824C687.009 51.125 686.383 50.9464 686.026 50.9464Z" fill="black"/>
<path d="M1 1H86.7109V17.1016H41.7109L41.6406 47.4062H74.6875V63.5078H41.6406V105.484H1V1Z" stroke="black" stroke-width="2" mask="url(#path-1-outside-1_40000065_583)"/>
<path d="M110.083 46.3904C110.261 46.301 111.199 46.2564 112.897 46.2564C115.309 46.3457 117.453 46.703 119.329 47.3284C126.743 49.8297 131.344 55.2344 133.131 63.5424C133.309 64.6144 133.399 66.3117 133.399 68.6344C133.488 71.5824 133.22 74.2624 132.595 76.6744C131.344 81.677 129.2 86.3224 126.163 90.6104C120.624 98.3824 113.701 103.474 105.393 105.886C103.159 106.512 100.971 106.869 98.8268 106.958C91.1441 107.226 85.2481 104.457 81.1387 98.6504C80.6027 98.025 80.1561 97.355 79.7988 96.6404C75.5108 88.9577 75.6448 79.935 80.2008 69.5724C82.3448 64.927 85.2034 60.8177 88.7767 57.2444C92.1714 53.8497 95.7001 51.3037 99.3627 49.6064C102.936 47.8197 106.509 46.7477 110.083 46.3904ZM114.237 52.8224C112.361 52.5544 110.842 52.5097 109.681 52.6884C105.303 53.4924 101.685 55.6364 98.8268 59.1204C96.2361 62.247 94.0028 67.473 92.1268 74.7984C91.9481 75.4237 91.7694 76.049 91.5908 76.6744C90.1614 82.5704 89.4467 86.9477 89.4467 89.8064C89.4467 91.6824 89.5361 92.933 89.7148 93.5584C90.7868 97.757 93.3774 100.08 97.4867 100.526C99.2734 100.705 101.149 100.482 103.115 99.8564C107.849 98.3377 111.601 94.8984 114.371 89.5384C115.889 86.769 117.408 82.213 118.927 75.8704C120.892 68.0984 121.428 62.5597 120.535 59.2544C119.641 55.949 117.542 53.805 114.237 52.8224Z" stroke="black" stroke-width="2" mask="url(#path-1-outside-1_40000065_583)"/>
<path d="M179.23 6.81641C183.941 6.99089 188.696 7.86328 193.494 9.43359C198.38 10.9167 202.872 13.3594 206.973 16.7617C211.073 20.0768 214.562 24.3952 217.441 29.7168C220.32 34.9512 222.109 41.3633 222.807 48.9531C223.417 55.1471 222.632 61.2975 220.451 67.4043C218.357 73.4238 215.435 78.9635 211.684 84.0234C207.932 89.0833 203.614 93.4017 198.729 96.9785C193.843 100.468 188.958 102.78 184.072 103.914C181.106 104.612 177.835 104.699 174.258 104.176C170.768 103.565 167.191 102.475 163.527 100.904C159.951 99.2467 156.417 97.153 152.928 94.623C149.525 92.0931 146.428 89.2142 143.637 85.9863C140.845 82.6712 138.49 79.0944 136.57 75.2559C134.738 71.4173 133.604 67.4043 133.168 63.2168C132.732 59.7272 132.688 55.8887 133.037 51.7012C133.473 47.4264 134.302 43.1953 135.523 39.0078C136.832 34.7331 138.62 30.6328 140.889 26.707C143.244 22.694 146.21 19.2044 149.787 16.2383C153.364 13.1849 157.551 10.8294 162.35 9.17188C167.235 7.42708 172.862 6.64193 179.23 6.81641ZM155.807 59.8145C154.585 69.1491 155.458 76.6517 158.424 82.3223C161.477 87.9928 166.057 91.4388 172.164 92.6602C175.13 93.2708 177.965 92.6602 180.67 90.8281C183.462 88.9089 185.992 86.1608 188.26 82.584C190.528 79.0072 192.491 74.8197 194.148 70.0215C195.806 65.2233 197.027 60.207 197.812 54.9727C198.598 49.7383 198.641 45.0273 197.943 40.8398C197.333 36.5651 196.242 32.9447 194.672 29.9785C193.102 26.9251 191.182 24.5697 188.914 22.9121C186.733 21.2546 184.465 20.3385 182.109 20.1641C178.009 19.9023 174.432 20.9928 171.379 23.4355C168.326 25.791 165.752 28.888 163.658 32.7266C161.564 36.5651 159.863 40.8835 158.555 45.6816C157.333 50.4798 156.417 55.1908 155.807 59.8145Z" stroke="black" stroke-width="2" mask="url(#path-1-outside-1_40000065_583)"/>
<path d="M299.932 101.732V105.484H275.008V94.3624C272.506 98.4717 269.692 101.598 266.566 103.742C263.528 105.797 259.91 106.824 255.712 106.824C248.208 106.824 242.222 103.876 237.756 97.9804C233.378 91.995 231.19 83.6424 231.19 72.9224V70.2424C231.19 59.8797 233.736 51.6164 238.828 45.4524C244.009 39.2884 251.066 36.2064 260 36.2064C265.36 36.2064 270.094 37.5464 274.204 40.2264V17.5804C274.204 14.543 274.07 12.7564 273.802 12.2204C273.534 11.595 272.685 11.193 271.256 11.0144L263.886 10.0764V6.32437H289.614V94.2284C289.614 97.2657 289.748 99.097 290.016 99.7224C290.284 100.258 291.132 100.616 292.562 100.794L299.932 101.732ZM247.672 76.9424C247.672 85.2504 248.699 91.325 250.754 95.1664C252.808 99.0077 255.622 100.928 259.196 100.928C261.429 100.928 263.752 100.035 266.164 98.2484C268.665 96.3724 271.345 92.6204 274.204 86.9924V46.5244C270.809 43.1297 266.655 41.4324 261.742 41.4324C256.828 41.4324 253.255 43.6657 251.022 48.1324C248.788 52.5097 247.672 58.5397 247.672 66.2224V76.9424Z" stroke="black" stroke-width="2" mask="url(#path-1-outside-1_40000065_583)"/>
<path d="M366.211 110.174C363.263 110.174 360.851 109.281 358.975 107.494C357.188 105.708 355.848 103.43 354.955 100.66C354.062 97.8017 353.615 94.809 353.615 91.6824C353.615 89.8064 353.794 88.0197 354.151 86.3224C354.508 84.625 354.866 83.2404 355.223 82.1684C355.134 81.543 355.044 80.9177 354.955 80.2924C354.955 79.5777 354.955 78.863 354.955 78.1484C354.955 75.5577 355.223 72.7437 355.759 69.7064C356.295 66.669 357.144 63.7657 358.305 60.9964C359.556 58.227 361.074 55.9937 362.861 54.2964C364.737 52.5097 367.015 51.6164 369.695 51.6164C372.018 51.6164 374.296 52.599 376.529 54.5644C378.762 56.4404 380.728 59.2097 382.425 62.8724C383.408 64.927 384.078 67.1604 384.435 69.5724C384.882 71.895 385.105 74.2624 385.105 76.6744C385.105 79.9797 384.748 83.285 384.033 86.5904C383.408 89.8064 382.47 92.8437 381.219 95.7024C380.326 97.757 379.12 99.9457 377.601 102.268C376.172 104.502 374.519 106.378 372.643 107.896C370.767 109.415 368.623 110.174 366.211 110.174ZM366.881 107.226C369.918 107.226 372.732 105.127 375.323 100.928C377.199 97.9804 378.539 94.6304 379.343 90.8784C380.147 87.037 380.549 83.1957 380.549 79.3544C380.549 76.4957 380.37 73.7264 380.013 71.0464C379.656 68.3664 379.12 65.7757 378.405 63.2744C377.78 61.041 376.708 59.0757 375.189 57.3784C373.76 55.5917 371.705 54.8324 369.025 55.1004C366.881 55.279 365.005 56.351 363.397 58.3164C361.789 60.2817 360.538 62.515 359.645 65.0164C358.841 67.4284 358.439 69.5277 358.439 71.3144C358.439 72.297 358.573 73.0564 358.841 73.5924C359.109 72.8777 359.779 71.7164 360.851 70.1084C361.923 68.411 363.129 66.8924 364.469 65.5524C365.809 64.123 367.06 63.4084 368.221 63.4084C369.204 63.4084 369.695 63.8104 369.695 64.6144C368.534 64.7037 367.372 65.4184 366.211 66.7584C365.139 68.009 364.112 69.5277 363.129 71.3144C362.236 73.101 361.476 74.8877 360.851 76.6744C360.315 78.3717 359.913 79.7117 359.645 80.6944C359.556 81.0517 359.422 81.4984 359.243 82.0344C359.064 82.5704 358.975 83.1064 358.975 83.6424C358.975 84.2677 359.332 85.295 360.047 86.7244C360.762 88.0644 361.923 89.315 363.531 90.4764C365.139 91.6377 367.328 92.2184 370.097 92.2184C370.901 92.2184 371.75 92.129 372.643 91.9504C373.536 91.7717 374.385 91.593 375.189 91.4144L376.127 91.1464C376.306 91.1464 376.395 91.2357 376.395 91.4144C376.395 91.6824 376.082 92.0397 375.457 92.4864C374.921 92.8437 374.43 93.1117 373.983 93.2904C372.732 93.9157 371.348 94.2284 369.829 94.2284C367.596 94.2284 365.452 93.5584 363.397 92.2184C361.432 90.789 359.69 89.181 358.171 87.3944C358.082 88.109 358.037 88.8237 358.037 89.5384C358.037 90.1637 358.037 90.789 358.037 91.4144C358.037 96.5957 358.93 100.526 360.717 103.206C362.504 105.886 364.558 107.226 366.881 107.226Z" stroke="black" stroke-width="2" mask="url(#path-1-outside-1_40000065_583)"/>
<path d="M401.882 105.484H387.455V76.585L384.775 74.9324V69.885L394.378 67.5177H397.996L399.291 78.1484C400.512 70.8528 404.428 67.205 411.039 67.205C411.783 67.205 412.557 67.339 413.361 67.607L411.843 83.5084C411.217 82.9426 409.848 82.6597 407.733 82.6597C404.696 82.6597 402.746 83.4637 401.882 85.0717V105.484Z" stroke="black" stroke-width="2" mask="url(#path-1-outside-1_40000065_583)"/>
<path d="M454.131 98.6797C452.648 95.3646 451.993 92.1367 452.168 88.9961C452.342 85.7682 453.04 82.7585 454.262 79.9668C455.57 77.0879 457.228 74.5143 459.234 72.2461C461.328 69.8906 463.553 67.8841 465.908 66.2266C468.264 64.4818 470.619 63.1732 472.975 62.3008C475.417 61.4284 477.555 61.0794 479.387 61.2539C481.219 61.3411 482.658 61.9954 483.705 63.2168C484.752 64.4382 485.101 66.3138 484.752 68.8438C484.752 72.2461 483.661 75.2122 481.48 77.7422C479.387 80.2721 477.031 82.5404 474.414 84.5469C471.884 86.5534 469.529 88.3854 467.348 90.043C465.254 91.6133 464.207 93.0964 464.207 94.4922C464.207 95.2773 464.643 95.888 465.516 96.3242C466.475 96.7604 467.566 97.1094 468.787 97.3711C470.008 97.5456 471.23 97.6764 472.451 97.7637C473.673 97.8509 474.545 97.9382 475.068 98.0254C483.269 96.2806 489.419 95.2337 493.52 94.8848C497.62 94.4486 500.193 94.4922 501.24 95.0156C502.287 95.4518 502.069 96.1934 500.586 97.2402C499.19 98.1999 497.009 99.2467 494.043 100.381C491.077 101.428 487.631 102.387 483.705 103.26C479.779 104.132 475.897 104.656 472.059 104.83C468.22 104.917 464.643 104.525 461.328 103.652C458.1 102.78 455.701 101.122 454.131 98.6797ZM477.031 68.8438C475.286 68.8438 473.629 69.3236 472.059 70.2832C470.488 71.2428 469.049 72.4642 467.74 73.9473C466.519 75.3431 465.472 76.9134 464.6 78.6582C463.727 80.3158 463.073 81.8861 462.637 83.3691C462.811 83.4564 462.942 83.5 463.029 83.5H463.422C464.643 83.5 466.039 82.9766 467.609 81.9297C469.18 80.8828 470.663 79.6178 472.059 78.1348C473.454 76.5645 474.632 74.9505 475.592 73.293C476.551 71.6354 477.031 70.1523 477.031 68.8438Z" stroke="black" stroke-width="2" mask="url(#path-1-outside-1_40000065_583)"/>
<path d="M547.182 105.484C542.001 105.484 537.445 104.412 533.514 102.268C529.583 100.035 526.501 96.953 524.268 93.0224C522.124 89.0917 521.052 84.5357 521.052 79.3544V25.7544H498.272V7.66437H541.152V79.3544C541.152 81.7664 541.867 83.7317 543.296 85.2504C544.815 86.6797 546.78 87.3944 549.192 87.3944H570.632V105.484H547.182Z" stroke="black" stroke-width="2" mask="url(#path-1-outside-1_40000065_583)"/>
<path d="M581.176 50.4104L586.938 41.1644C587.295 41.1644 587.652 41.1644 588.01 41.1644C588.367 41.075 588.769 40.9857 589.216 40.8964C589.93 40.807 590.868 40.673 592.03 40.4944C593.191 40.3157 594.531 40.137 596.05 39.9584C602.124 39.2437 604.358 37.7697 602.75 35.5364L621.912 32.7224H626.87L627.808 33.7944L628.344 38.2164L626.066 39.9584L619.366 40.0924L610.656 44.3804L601.008 47.4624L599.4 51.0804L602.482 58.5844L606.234 59.1204L607.976 63.0064L611.192 62.7384L613.068 65.0164C613.872 64.7484 614.676 64.5697 615.48 64.4804C616.284 64.3017 616.998 64.3017 617.624 64.4804C618.07 64.5697 618.562 64.659 619.098 64.7484C619.634 64.7484 620.259 64.8377 620.974 65.0164C621.867 65.2844 622.492 65.597 622.85 65.9544C623.207 66.2224 623.52 66.4904 623.788 66.7584C624.056 66.937 624.368 67.1157 624.726 67.2944C625.083 67.473 625.708 67.5624 626.602 67.5624C626.87 68.0984 627.361 68.6344 628.076 69.1704C628.88 69.7064 629.728 70.2424 630.622 70.7784C631.604 71.3144 632.542 71.8504 633.436 72.3864C634.418 72.9224 635.133 73.4584 635.58 73.9944C635.758 74.173 635.848 74.307 635.848 74.3964C635.937 74.4857 636.071 74.6197 636.25 74.7984L637.054 81.2304L634.106 89.2704L633.302 94.8984L626.736 98.2484L615.882 102.536L609.316 101.598C606.993 101.241 604.938 101.241 603.152 101.598C601.365 101.956 599.712 102.134 598.194 102.134H583.454L581.846 98.1144L582.918 94.2284L602.348 92.2184L608.78 91.4144L616.82 82.8384L615.614 78.9524L609.718 77.8804L599.4 75.0664L597.658 76.0044L592.03 73.4584L588.412 71.0464L584.258 61.9344L581.176 55.9044V50.4104Z" stroke="black" stroke-width="2" mask="url(#path-1-outside-1_40000065_583)"/>
<path d="M719.794 72.6544C719.794 78.6397 718.856 83.5977 716.98 87.5284C715.193 91.459 712.826 95.077 709.878 98.3824C709.074 99.2757 707.868 100.348 706.26 101.598C704.652 102.76 702.999 103.921 701.302 105.082C699.694 106.154 698.399 107.092 697.416 107.896C694.111 110.576 690.046 112.586 685.222 113.926C680.487 115.266 675.395 115.936 669.946 115.936C665.747 115.936 661.683 115.668 657.752 115.132C653.911 114.596 650.739 113.346 648.238 111.38C645.826 109.415 644.62 106.333 644.62 102.134C644.62 98.3824 645.379 94.3624 646.898 90.0744C648.506 85.697 650.516 81.409 652.928 77.2104C655.34 73.0117 657.886 69.1704 660.566 65.6864C663.246 62.113 665.703 59.2544 667.936 57.1104C666.417 55.7704 665.211 54.2517 664.318 52.5544C663.514 50.7677 663.112 48.847 663.112 46.7924C663.112 42.951 664.05 39.333 665.926 35.9384C667.802 32.4544 670.259 29.417 673.296 26.8264C676.333 24.1464 679.683 22.047 683.346 20.5284C687.098 19.0097 690.85 18.2504 694.602 18.2504C697.818 18.2504 700.989 18.6077 704.116 19.3224C707.243 19.9477 709.833 21.1537 711.888 22.9404C714.032 24.727 715.104 27.2284 715.104 30.4444C715.104 33.3924 714.925 35.715 714.568 37.4124C714.211 39.0204 713.362 40.137 712.022 40.7624C710.771 41.3877 708.761 41.7004 705.992 41.7004C703.223 41.7004 700.677 41.1197 698.354 39.9584C696.031 38.797 694.647 37.591 694.2 36.3404C694.111 35.983 694.021 35.581 693.932 35.1344C693.932 34.5984 693.932 34.0177 693.932 33.3924C693.932 31.695 694.155 29.9977 694.602 28.3004C695.049 26.5137 695.808 25.6204 696.88 25.6204C698.22 25.6204 698.89 26.2457 698.89 27.4964C698.89 28.3004 698.711 29.283 698.354 30.4444C698.086 31.5164 697.952 32.5437 697.952 33.5264C697.952 34.6877 698.309 35.6704 699.024 36.4744C699.828 37.189 701.436 37.5464 703.848 37.5464C706.439 37.5464 708.225 37.055 709.208 36.0724C710.191 35.0004 710.682 33.1244 710.682 30.4444C710.682 28.0324 709.833 26.2904 708.136 25.2184C706.439 24.1464 704.339 23.4764 701.838 23.2084C699.426 22.851 697.014 22.6724 694.602 22.6724C691.386 22.6724 688.17 23.2977 684.954 24.5484C681.827 25.799 678.924 27.541 676.244 29.7744C673.653 32.0077 671.554 34.5984 669.946 37.5464C668.338 40.405 667.534 43.487 667.534 46.7924C667.534 49.5617 668.651 52.1524 670.884 54.5644C672.492 53.2244 674.413 51.8397 676.646 50.4104C678.879 48.8917 681.202 47.641 683.614 46.6584C686.026 45.5864 688.349 45.0504 690.582 45.0504C692.101 45.0504 693.441 45.6757 694.602 46.9264C695.853 48.0877 696.478 49.383 696.478 50.8124C696.478 52.063 695.585 53.5817 693.798 55.3684C692.101 57.0657 689.957 58.5844 687.366 59.9244C684.775 61.175 682.095 61.8004 679.326 61.8004C678.969 61.8004 678.567 61.8004 678.12 61.8004C677.763 61.711 677.361 61.6217 676.914 61.5324C675.038 61.175 673.251 60.5497 671.554 59.6564C668.874 62.0684 666.105 65.2397 663.246 69.1704C660.477 73.0117 658.109 77.255 656.144 81.9004C654.268 86.4564 653.33 91.1017 653.33 95.8364C653.33 100.75 654.849 104.591 657.886 107.36C661.013 110.13 665.033 111.514 669.946 111.514C674.859 111.514 679.549 110.442 684.016 108.298C688.483 106.154 692.235 103.921 695.272 101.598C696.791 100.437 698.265 99.231 699.694 97.9804C701.123 96.7297 702.463 95.4344 703.714 94.0944C705.501 92.129 707.243 90.2084 708.94 88.3324C710.727 86.367 712.201 84.1784 713.362 81.7664C714.613 79.265 715.238 76.2277 715.238 72.6544C715.238 71.493 714.791 70.5104 713.898 69.7064C713.005 68.9024 712.067 68.5004 711.084 68.5004C707.779 68.5004 704.965 68.9024 702.642 69.7064C700.409 70.5104 698.488 72.2077 696.88 74.7984C696.523 75.245 696.21 75.7364 695.942 76.2724C695.674 76.719 695.54 77.2997 695.54 78.0144C695.54 78.9077 695.987 79.533 696.88 79.8904C697.773 80.1584 698.131 80.739 697.952 81.6324V82.7044C697.952 83.0617 697.863 83.3744 697.684 83.6424C697.505 83.9104 696.925 84.1337 695.942 84.3124C694.781 84.4017 693.441 83.687 691.922 82.1684C690.403 80.5604 689.644 78.8184 689.644 76.9424C689.644 75.513 690.001 74.3517 690.716 73.4584C691.431 72.4757 692.279 71.4037 693.262 70.2424C695.763 67.3837 698.399 65.6417 701.168 65.0164C704.027 64.391 707.332 64.0784 711.084 64.0784C713.407 64.0784 715.417 64.9717 717.114 66.7584C718.901 68.4557 719.794 70.421 719.794 72.6544ZM686.026 50.9464C683.346 50.9464 681.068 51.6164 679.192 52.9564C677.405 54.207 675.753 55.5917 674.234 57.1104C675.217 57.557 676.199 57.7804 677.182 57.7804C678.522 57.7804 680.13 57.557 682.006 57.1104C683.971 56.6637 685.669 56.083 687.098 55.3684C688.617 54.5644 689.376 53.6264 689.376 52.5544C689.376 52.197 688.885 51.8397 687.902 51.4824C687.009 51.125 686.383 50.9464 686.026 50.9464Z" stroke="black" stroke-width="2" mask="url(#path-1-outside-1_40000065_583)"/>
</svg>
